<?xml version="1.0" encoding="UTF-8" standalone="no"?><!-- Generator: Gravit.io --><svg xmlns="http://www.w3.org/2000/svg" xmlns:xlink="http://www.w3.org/1999/xlink" style="isolation:isolate" viewBox="0 0 50 50" width="50pt" height="50pt"><defs><clipPath id="_clipPath_mC45FNzT61hevG79873AVZQ1qoDY7ofw"><rect width="50" height="50"/></clipPath></defs><g clip-path="url(#_clipPath_mC45FNzT61hevG79873AVZQ1qoDY7ofw)"><g><path d=" M 2.344 32.053 L 47.656 32.053 C 48.519 32.053 49.219 32.752 49.219 33.615 L 49.219 38.303 C 49.219 39.166 48.519 39.865 47.656 39.865 L 2.344 39.865 C 1.481 39.865 0.781 39.166 0.781 38.303 L 0.781 33.615 C 0.781 32.752 1.481 32.053 2.344 32.053 Z " fill="rgb(194,205,231)"/><path d=" M 3.125 35.959 C 3.125 35.529 3.477 35.178 3.906 35.178 L 46.094 35.178 C 46.523 35.178 46.875 35.529 46.875 35.959 C 46.875 36.389 46.523 36.74 46.094 36.74 L 3.906 36.74 C 3.477 36.74 3.125 36.389 3.125 35.959 Z " fill="rgb(213,224,243)"/><path d=" M 47.656 32.053 L 32.031 32.053 L 32.031 16.428 L 39.844 16.428 L 47.656 27.426 L 47.656 32.053 Z " fill="rgb(237,120,153)"/><path d=" M 42.188 25.803 L 35.156 25.803 L 35.156 19.553 L 39.844 19.553 L 42.188 25.803 Z " fill="rgb(187,222,249)"/><path d=" M 2.344 8.615 L 32.031 8.615 L 32.031 32.053 L 2.344 32.053 L 2.344 8.615 Z " fill="rgb(133,203,248)"/><path d=" M 32.031 8.615 L 2.344 8.615 L 2.344 10.178 C 2.344 11.472 3.393 12.521 4.688 12.521 L 29.688 12.521 C 30.982 12.521 32.031 11.472 32.031 10.178 L 32.031 8.615 Z " fill="rgb(111,198,240)"/><path d=" M 2.344 5.49 L 32.031 5.49 C 32.894 5.49 33.594 6.19 33.594 7.053 C 33.594 7.916 32.894 8.615 32.031 8.615 L 2.344 8.615 C 1.481 8.615 0.781 7.916 0.781 7.053 C 0.781 6.19 1.481 5.49 2.344 5.49 Z " fill="rgb(249,227,174)"/><path d=" M 16.406 39.865 C 16.406 42.454 14.306 44.553 11.719 44.553 C 9.13 44.553 7.031 42.453 7.031 39.865 C 7.031 37.277 9.131 35.178 11.719 35.178 C 14.307 35.178 16.406 37.278 16.406 39.865 Z  M 44.531 39.865 C 44.531 42.454 42.431 44.553 39.844 44.553 C 37.255 44.553 35.156 42.453 35.156 39.865 C 35.156 37.277 37.256 35.178 39.844 35.178 C 42.432 35.178 44.531 37.278 44.531 39.865 Z " fill="rgb(172,183,208)"/><path d=" M 25.781 20.334 C 25.781 25.079 21.933 28.928 17.188 28.928 C 12.442 28.928 8.594 25.079 8.594 20.334 C 8.594 15.589 12.442 11.74 17.188 11.74 C 21.933 11.74 25.781 15.589 25.781 20.334 Z " fill="rgb(249,227,174)"/><path d=" M 17.188 29.709 C 22.366 29.709 26.563 25.513 26.563 20.334 C 26.563 15.155 22.366 10.959 17.188 10.959 C 12.009 10.959 7.813 15.155 7.813 20.334 C 7.813 25.513 12.009 29.709 17.188 29.709 Z  M 17.188 12.521 C 21.502 12.521 25 16.019 25 20.334 C 25 24.649 21.502 28.146 17.188 28.146 C 12.873 28.146 9.375 24.649 9.375 20.334 C 9.375 16.019 12.873 12.521 17.188 12.521 Z " fill="rgb(141,108,159)"/><path d=" M 13.281 25.021 C 13.489 25.021 13.688 24.942 13.836 24.795 L 17.742 20.889 C 17.889 20.74 17.969 20.542 17.969 20.334 L 17.969 14.865 C 17.969 14.436 17.617 14.084 17.188 14.084 C 16.758 14.084 16.406 14.436 16.406 14.865 L 16.406 20.014 L 12.727 23.693 C 12.506 23.918 12.442 24.253 12.564 24.543 C 12.684 24.833 12.967 25.022 13.281 25.021 Z  M 5.469 34.396 C 5.039 34.396 4.688 34.748 4.688 35.178 L 4.688 36.74 C 4.688 37.17 5.039 37.521 5.469 37.521 C 5.898 37.521 6.25 37.17 6.25 36.74 L 6.25 35.178 C 6.25 34.748 5.898 34.396 5.469 34.396 Z  M 17.969 34.396 C 17.539 34.396 17.188 34.748 17.188 35.178 L 17.188 36.74 C 17.188 37.17 17.539 37.521 17.969 37.521 C 18.398 37.521 18.75 37.17 18.75 36.74 L 18.75 35.178 C 18.75 34.748 18.398 34.396 17.969 34.396 Z  M 21.875 34.396 C 21.445 34.396 21.094 34.748 21.094 35.178 L 21.094 36.74 C 21.094 37.17 21.445 37.521 21.875 37.521 C 22.305 37.521 22.656 37.17 22.656 36.74 L 22.656 35.178 C 22.656 34.748 22.305 34.396 21.875 34.396 Z  M 25.781 34.396 C 25.352 34.396 25 34.748 25 35.178 L 25 36.74 C 25 37.17 25.352 37.521 25.781 37.521 C 26.211 37.521 26.563 37.17 26.563 36.74 L 26.563 35.178 C 26.563 34.748 26.211 34.396 25.781 34.396 Z  M 29.688 34.396 C 29.258 34.396 28.906 34.748 28.906 35.178 L 28.906 36.74 C 28.906 37.17 29.258 37.521 29.688 37.521 C 30.117 37.521 30.469 37.17 30.469 36.74 L 30.469 35.178 C 30.469 34.748 30.117 34.396 29.688 34.396 Z  M 33.594 34.396 C 33.164 34.396 32.813 34.748 32.813 35.178 L 32.813 36.74 C 32.813 37.17 33.164 37.521 33.594 37.521 C 34.023 37.521 34.375 37.17 34.375 36.74 L 34.375 35.178 C 34.375 34.748 34.023 34.396 33.594 34.396 Z  M 46.094 34.396 C 45.664 34.396 45.313 34.748 45.313 35.178 L 45.313 36.74 C 45.313 37.17 45.664 37.521 46.094 37.521 C 46.523 37.521 46.875 37.17 46.875 36.74 L 46.875 35.178 C 46.875 34.748 46.523 34.396 46.094 34.396 Z  M 35.156 29.709 L 36.719 29.709 C 37.148 29.709 37.5 29.357 37.5 28.928 C 37.5 28.498 37.148 28.146 36.719 28.146 L 35.156 28.146 C 34.727 28.146 34.375 28.498 34.375 28.928 C 34.375 29.357 34.727 29.709 35.156 29.709 Z " fill="rgb(141,108,159)"/><path d=" M 48.438 31.406 C 48.441 31.361 48.441 31.316 48.438 31.271 L 48.438 28.281 C 48.438 27.533 48.224 26.8 47.82 26.169 L 42.188 17.443 C 41.474 16.33 40.245 15.653 38.922 15.646 L 37.5 15.646 L 37.5 14.084 C 37.5 13.654 37.148 13.303 36.719 13.303 C 36.289 13.303 35.938 13.654 35.938 14.084 L 35.938 15.646 L 32.813 15.646 L 32.813 9.256 C 33.877 8.867 34.511 7.773 34.319 6.656 C 34.128 5.54 33.164 4.72 32.031 4.709 L 2.344 4.709 C 1.211 4.72 0.247 5.54 0.056 6.656 C -0.136 7.773 0.498 8.867 1.562 9.256 L 1.563 31.412 C 0.628 31.742 0.003 32.624 0 33.615 L 0 38.303 C 0 39.597 1.049 40.646 2.344 40.646 L 6.311 40.646 C 6.72 43.317 9.017 45.29 11.719 45.291 C 14.421 45.29 16.717 43.317 17.127 40.646 L 34.436 40.646 C 34.845 43.317 37.142 45.29 39.844 45.291 C 42.546 45.29 44.842 43.317 45.252 40.646 L 47.656 40.646 C 48.951 40.646 50 39.597 50 38.303 L 50 33.615 C 50 32.621 49.375 31.736 48.438 31.406 Z  M 38.922 17.209 C 39.719 17.21 40.46 17.616 40.891 18.286 L 46.5 27.014 C 46.744 27.389 46.875 27.829 46.875 28.28 L 46.875 31.271 L 32.813 31.271 L 32.813 17.209 L 38.922 17.209 Z  M 31.25 9.396 L 31.25 31.271 L 3.125 31.271 L 3.125 9.396 L 31.25 9.396 Z  M 2.344 6.271 L 32.031 6.271 C 32.461 6.271 32.813 6.623 32.813 7.053 C 32.813 7.482 32.461 7.834 32.031 7.834 L 2.344 7.834 C 1.914 7.834 1.563 7.482 1.563 7.053 C 1.563 6.623 1.914 6.271 2.344 6.271 Z  M 11.719 43.771 C 9.561 43.771 7.813 42.023 7.813 39.865 C 7.813 37.708 9.561 35.959 11.719 35.959 C 13.876 35.959 15.625 37.708 15.625 39.865 C 15.625 42.023 13.876 43.771 11.719 43.771 Z  M 39.844 43.771 C 37.686 43.771 35.938 42.023 35.938 39.865 C 35.938 37.708 37.686 35.959 39.844 35.959 C 42.001 35.959 43.75 37.708 43.75 39.865 C 43.75 42.023 42.001 43.771 39.844 43.771 Z  M 48.438 38.303 C 48.438 38.732 48.086 39.084 47.656 39.084 L 45.252 39.084 C 44.842 36.413 42.546 34.441 39.844 34.439 C 37.142 34.441 34.845 36.413 34.436 39.084 L 17.127 39.084 C 16.717 36.413 14.421 34.441 11.719 34.439 C 9.017 34.441 6.72 36.413 6.311 39.084 L 2.344 39.084 C 1.914 39.084 1.563 38.732 1.563 38.303 L 1.563 37.521 C 1.992 37.521 2.344 37.17 2.344 36.74 L 2.344 35.178 C 2.344 34.748 1.992 34.396 1.563 34.396 L 1.563 33.615 C 1.563 33.186 1.914 32.834 2.344 32.834 L 47.656 32.834 C 48.086 32.834 48.438 33.186 48.438 33.615 L 48.438 38.303 Z " fill="rgb(141,108,159)"/><path d=" M 41.406 39.865 C 41.406 40.728 40.707 41.428 39.844 41.428 C 38.981 41.428 38.281 40.728 38.281 39.865 C 38.281 39.002 38.981 38.303 39.844 38.303 C 40.707 38.303 41.406 39.002 41.406 39.865 Z  M 13.281 39.865 C 13.281 40.728 12.582 41.428 11.719 41.428 C 10.856 41.428 10.156 40.728 10.156 39.865 C 10.156 39.002 10.856 38.303 11.719 38.303 C 12.582 38.303 13.281 39.002 13.281 39.865 Z  M 35.938 26.584 L 41.563 26.584 C 42.131 26.586 42.655 26.278 42.932 25.782 C 43.207 25.284 43.191 24.676 42.889 24.194 L 39.959 19.507 C 39.674 19.049 39.172 18.771 38.633 18.771 L 35.938 18.771 C 35.075 18.771 34.375 19.471 34.375 20.334 L 34.375 25.021 C 34.375 25.884 35.075 26.584 35.938 26.584 Z  M 35.938 20.334 L 38.633 20.334 L 41.57 25.021 L 35.938 25.021 L 35.938 20.334 Z " fill="rgb(141,108,159)"/></g></g></svg>