<?xml version="1.0" encoding="UTF-8" standalone="no"?><!-- Generator: Gravit.io --><svg xmlns="http://www.w3.org/2000/svg" xmlns:xlink="http://www.w3.org/1999/xlink" style="isolation:isolate" viewBox="0 0 60 56" width="60pt" height="56pt"><defs><clipPath id="_clipPath_KAFNcS98qnie78yGnwoItOPa2Q00g4qD"><rect width="60" height="56"/></clipPath></defs><g clip-path="url(#_clipPath_KAFNcS98qnie78yGnwoItOPa2Q00g4qD)"><g><path d=" M 339.897 516.448 L 310.847 499.448 L 281.897 516.448 L 281.897 519.448 L 310.897 532.448 L 339.897 519.448 L 339.897 516.448 Z " fill="rgb(172,183,208)"/><path d=" M 301.135 492.389 L 326.897 492.389 C 328.553 492.389 329.897 493.729 329.897 495.389 L 329.897 523.389 L 310.847 532.389 L 291.897 523.389 L 291.897 501.628 C 291.897 500.831 292.213 500.069 292.776 499.507 L 299.017 493.268 C 299.578 492.706 300.339 492.39 301.134 492.389 L 301.135 492.389 Z " fill="rgb(187,222,249)"/><path d=" M 329.897 516.917 L 329.897 496.077 L 303.967 528.827 L 307.897 531.448 L 315.897 530.448 L 321.197 527.917 L 329.897 516.917 Z  M 301.687 527.448 L 329.397 492.448 L 324.897 492.448 L 297.897 526.55 L 301.687 527.448 Z  M 294.897 525.658 L 322.397 492.448 L 320.897 492.448 L 293.897 524.979 L 294.897 525.658 Z " fill="rgb(204,231,252)"/><path d=" M 323.397 508.448 L 324.635 510.71 L 326.897 511.948 L 324.635 513.186 L 323.397 515.448 L 322.159 513.186 L 319.897 511.948 L 322.159 510.71 L 323.397 508.448 Z  M 311.319 495.448 L 312.167 497.007 L 313.737 497.87 L 312.167 498.718 L 311.319 500.288 L 310.456 498.718 L 308.897 497.87 L 310.456 497.007 L 311.319 495.448 Z  M 310.545 525.448 L 311.127 526.507 L 312.197 527.097 L 311.127 527.678 L 310.545 528.748 L 309.967 527.678 L 308.897 527.096 L 309.967 526.506 L 310.545 525.448 Z " fill="rgb(255,255,255)"/><path d=" M 301.897 492.389 L 301.897 502.389 L 291.897 502.389 L 301.897 492.389 Z " fill="rgb(255,239,184)"/><path d=" M 337.897 546.678 L 283.787 546.678 C 282.682 546.678 281.787 545.784 281.787 544.678 L 281.787 519.319 L 310.897 532.319 L 339.897 519.319 L 339.897 544.679 C 339.897 545.784 339.001 546.679 337.897 546.679 L 337.897 546.678 Z " fill="rgb(250,239,222)"/><path d=" M 285.787 539.448 L 335.897 539.448 C 338.107 539.448 339.897 541.238 339.897 543.448 L 339.897 544.678 C 339.897 545.784 339.002 546.678 337.897 546.678 L 283.787 546.678 C 282.682 546.678 281.787 545.784 281.787 544.678 L 281.787 543.448 C 281.787 541.238 283.577 539.448 285.787 539.448 Z " fill="rgb(239,216,190)"/><path d=" M 339.437 515.007 L 330.897 509.877 L 330.897 494.448 C 330.897 492.791 329.553 491.448 327.897 491.448 L 302.557 491.448 C 301.23 491.445 299.956 491.97 299.018 492.908 L 292.358 499.569 C 291.419 500.508 290.893 501.782 290.897 503.109 L 290.897 509.889 L 282.357 515.008 C 281.453 515.549 280.899 516.524 280.897 517.577 L 280.897 544.448 C 280.897 546.105 282.24 547.448 283.897 547.448 L 337.897 547.448 C 339.553 547.448 340.897 546.105 340.897 544.448 L 340.897 517.577 C 340.895 516.524 340.341 515.548 339.437 515.007 L 339.437 515.007 Z  M 300.437 494.327 C 300.577 494.187 300.733 494.057 300.897 493.948 L 300.897 500.448 C 300.897 500.998 300.447 501.448 299.897 501.448 L 293.397 501.448 C 293.507 501.284 293.635 501.128 293.776 500.988 L 300.437 494.327 Z  M 283.437 516.729 L 290.897 512.218 L 290.897 518.448 C 290.897 518.998 291.347 519.448 291.897 519.448 C 292.447 519.448 292.897 518.998 292.897 518.448 L 292.897 503.448 L 299.897 503.448 C 301.553 503.448 302.897 502.105 302.897 500.448 L 302.897 493.448 L 327.897 493.448 C 328.447 493.448 328.897 493.898 328.897 494.448 L 328.897 518.448 C 328.897 518.998 329.347 519.448 329.897 519.448 C 330.447 519.448 330.897 518.998 330.897 518.448 L 330.897 512.218 L 338.409 516.729 C 338.711 516.91 338.897 517.237 338.897 517.589 L 338.897 518.807 L 312.127 530.807 C 311.347 531.155 310.457 531.155 309.678 530.807 L 282.897 518.8 L 282.897 517.577 C 282.897 517.225 283.085 516.897 283.385 516.717 L 283.437 516.729 Z  M 337.897 545.448 L 283.897 545.448 C 283.347 545.448 282.897 544.998 282.897 544.448 L 282.897 520.988 L 308.897 532.628 C 310.197 533.21 311.687 533.21 312.987 532.628 L 338.897 520.988 L 338.897 544.448 C 338.897 544.998 338.447 545.448 337.897 545.448 Z " fill="rgb(141,108,159)"/><path d=" M 290.897 537.448 C 290.347 537.448 289.897 537.898 289.897 538.448 L 289.897 540.448 C 289.897 540.998 290.347 541.448 290.897 541.448 C 291.447 541.448 291.897 540.998 291.897 540.448 L 291.897 538.448 C 291.897 537.898 291.447 537.448 290.897 537.448 Z  M 285.897 537.448 C 285.347 537.448 284.897 537.898 284.897 538.448 L 284.897 540.448 C 284.897 540.998 285.347 541.448 285.897 541.448 C 286.447 541.448 286.897 540.998 286.897 540.448 L 286.897 538.448 C 286.897 537.898 286.447 537.448 285.897 537.448 Z  M 295.897 537.448 C 295.347 537.448 294.897 537.898 294.897 538.448 L 294.897 540.448 C 294.897 540.998 295.347 541.448 295.897 541.448 C 296.447 541.448 296.897 540.998 296.897 540.448 L 296.897 538.448 C 296.897 537.898 296.447 537.448 295.897 537.448 Z  M 300.897 537.448 C 300.347 537.448 299.897 537.898 299.897 538.448 L 299.897 540.448 C 299.897 540.998 300.347 541.448 300.897 541.448 C 301.447 541.448 301.897 540.998 301.897 540.448 L 301.897 538.448 C 301.897 537.898 301.447 537.448 300.897 537.448 Z  M 305.897 537.448 C 305.347 537.448 304.897 537.898 304.897 538.448 L 304.897 540.448 C 304.897 540.998 305.347 541.448 305.897 541.448 C 306.447 541.448 306.897 540.998 306.897 540.448 L 306.897 538.448 C 306.897 537.898 306.447 537.448 305.897 537.448 Z  M 310.897 537.448 C 310.347 537.448 309.897 537.898 309.897 538.448 L 309.897 540.448 C 309.897 540.998 310.347 541.448 310.897 541.448 C 311.447 541.448 311.897 540.998 311.897 540.448 L 311.897 538.448 C 311.897 537.898 311.447 537.448 310.897 537.448 Z  M 315.897 537.448 C 315.347 537.448 314.897 537.898 314.897 538.448 L 314.897 540.448 C 314.897 540.998 315.347 541.448 315.897 541.448 C 316.447 541.448 316.897 540.998 316.897 540.448 L 316.897 538.448 C 316.897 537.898 316.447 537.448 315.897 537.448 Z  M 320.897 537.448 C 320.347 537.448 319.897 537.898 319.897 538.448 L 319.897 540.448 C 319.897 540.998 320.347 541.448 320.897 541.448 C 321.447 541.448 321.897 540.998 321.897 540.448 L 321.897 538.448 C 321.897 537.898 321.447 537.448 320.897 537.448 Z  M 325.897 537.448 C 325.347 537.448 324.897 537.898 324.897 538.448 L 324.897 540.448 C 324.897 540.998 325.347 541.448 325.897 541.448 C 326.447 541.448 326.897 540.998 326.897 540.448 L 326.897 538.448 C 326.897 537.898 326.447 537.448 325.897 537.448 Z  M 330.897 537.448 C 330.347 537.448 329.897 537.898 329.897 538.448 L 329.897 540.448 C 329.897 540.998 330.347 541.448 330.897 541.448 C 331.447 541.448 331.897 540.998 331.897 540.448 L 331.897 538.448 C 331.897 537.898 331.447 537.448 330.897 537.448 Z  M 335.897 537.448 C 335.347 537.448 334.897 537.898 334.897 538.448 L 334.897 540.448 C 334.897 540.998 335.347 541.448 335.897 541.448 C 336.447 541.448 336.897 540.998 336.897 540.448 L 336.897 538.448 C 336.897 537.898 336.447 537.448 335.897 537.448 Z  M 309.897 523.448 L 315.897 523.448 C 316.447 523.448 316.897 522.998 316.897 522.448 C 316.897 521.898 316.447 521.448 315.897 521.448 L 309.897 521.448 C 307.135 521.448 304.897 519.21 304.897 516.448 L 304.897 510.448 C 304.897 507.687 307.135 505.448 309.897 505.448 L 311.897 505.448 C 314.658 505.448 316.897 507.687 316.897 510.448 L 316.897 516.448 C 316.897 516.998 316.447 517.448 315.897 517.448 C 315.347 517.448 314.897 516.998 314.897 516.448 L 314.897 511.448 C 314.897 509.238 313.107 507.448 310.897 507.448 C 308.687 507.448 306.897 509.238 306.897 511.448 L 306.897 515.448 C 306.905 517.032 307.847 518.461 309.299 519.093 C 310.751 519.725 312.441 519.442 313.608 518.37 C 314.418 519.328 315.74 519.679 316.92 519.249 C 318.1 518.821 318.889 517.704 318.897 516.448 L 318.897 510.448 C 318.897 506.581 315.764 503.448 311.897 503.448 L 309.897 503.448 C 306.03 503.448 302.897 506.581 302.897 510.448 L 302.897 516.448 C 302.897 520.315 306.03 523.448 309.897 523.448 Z  M 310.897 517.448 C 309.792 517.448 308.897 516.553 308.897 515.448 L 308.897 511.448 C 308.897 510.344 309.792 509.448 310.897 509.448 C 312.001 509.448 312.897 510.344 312.897 511.448 L 312.897 515.448 C 312.897 516.553 312.001 517.448 310.897 517.448 Z " fill="rgb(141,108,159)"/></g><g><path d=" M 59 25 L 29.95 8 L 1 25 L 1 28 L 30 41 L 59 28 L 59 25 Z " fill="rgb(172,183,208)"/><path d=" M 20.238 0.941 L 46 0.941 C 47.656 0.941 49 2.281 49 3.941 L 49 31.941 L 29.95 40.941 L 11 31.941 L 11 10.18 C 11 9.383 11.316 8.621 11.879 8.059 L 18.12 1.82 C 18.681 1.258 19.443 0.942 20.237 0.941 L 20.238 0.941 Z " fill="rgb(187,222,249)"/><path d=" M 49 25.469 L 49 4.629 L 23.07 37.379 L 27 40 L 35 39 L 40.3 36.469 L 49 25.469 Z  M 20.79 36 L 48.5 1 L 44 1 L 17 35.102 L 20.79 36 Z  M 14 34.21 L 41.5 1 L 40 1 L 13 33.531 L 14 34.21 Z " fill="rgb(204,231,252)"/><path d=" M 42.5 17 L 43.738 19.262 L 46 20.5 L 43.738 21.738 L 42.5 24 L 41.262 21.738 L 39 20.5 L 41.262 19.262 L 42.5 17 Z  M 30.422 4 L 31.27 5.559 L 32.84 6.422 L 31.27 7.27 L 30.422 8.84 L 29.559 7.27 L 28 6.422 L 29.559 5.559 L 30.422 4 Z  M 29.648 34 L 30.23 35.059 L 31.3 35.649 L 30.23 36.23 L 29.648 37.3 L 29.07 36.23 L 28 35.648 L 29.07 35.058 L 29.648 34 Z " fill="rgb(255,255,255)"/><path d=" M 21 0.941 L 21 10.941 L 11 10.941 L 21 0.941 Z " fill="rgb(255,239,184)"/><path d=" M 57 55.23 L 2.89 55.23 C 1.785 55.23 0.89 54.336 0.89 53.23 L 0.89 27.871 L 30 40.871 L 59 27.871 L 59 53.231 C 59 54.336 58.105 55.231 57 55.231 L 57 55.23 Z " fill="rgb(250,239,222)"/><path d=" M 4.89 48 L 55 48 C 57.21 48 59 49.79 59 52 L 59 53.23 C 59 54.336 58.105 55.23 57 55.23 L 2.89 55.23 C 1.785 55.23 0.89 54.336 0.89 53.23 L 0.89 52 C 0.89 49.79 2.68 48 4.89 48 Z " fill="rgb(239,216,190)"/><path d=" M 58.54 23.559 L 50 18.429 L 50 3 C 50 1.343 48.657 0 47 0 L 21.66 0 C 20.333 -0.004 19.059 0.522 18.121 1.46 L 11.461 8.121 C 10.522 9.059 9.996 10.334 10 11.661 L 10 18.441 L 1.46 23.56 C 0.556 24.101 0.002 25.076 0 26.129 L 0 53 C 0 54.657 1.343 56 3 56 L 57 56 C 58.657 56 60 54.657 60 53 L 60 26.129 C 59.998 25.075 59.444 24.1 58.54 23.559 L 58.54 23.559 Z  M 19.54 2.879 C 19.68 2.739 19.836 2.609 20 2.5 L 20 9 C 20 9.55 19.55 10 19 10 L 12.5 10 C 12.61 9.836 12.738 9.68 12.879 9.54 L 19.54 2.879 Z  M 2.54 25.281 L 10 20.77 L 10 27 C 10 27.55 10.45 28 11 28 C 11.55 28 12 27.55 12 27 L 12 12 L 19 12 C 20.657 12 22 10.657 22 9 L 22 2 L 47 2 C 47.55 2 48 2.45 48 3 L 48 27 C 48 27.55 48.45 28 49 28 C 49.55 28 50 27.55 50 27 L 50 20.77 L 57.512 25.281 C 57.815 25.462 58 25.788 58 26.141 L 58 27.359 L 31.23 39.359 C 30.451 39.707 29.56 39.707 28.781 39.359 L 2 27.352 L 2 26.129 C 2 25.777 2.188 25.449 2.488 25.269 L 2.54 25.281 Z  M 57 54 L 3 54 C 2.45 54 2 53.55 2 53 L 2 29.54 L 28 41.18 C 29.3 41.762 30.79 41.762 32.09 41.18 L 58 29.54 L 58 53 C 58 53.55 57.55 54 57 54 Z " fill="rgb(141,108,159)"/><path d=" M 10 46 C 9.45 46 9 46.45 9 47 L 9 49 C 9 49.55 9.45 50 10 50 C 10.55 50 11 49.55 11 49 L 11 47 C 11 46.45 10.55 46 10 46 Z  M 5 46 C 4.45 46 4 46.45 4 47 L 4 49 C 4 49.55 4.45 50 5 50 C 5.55 50 6 49.55 6 49 L 6 47 C 6 46.45 5.55 46 5 46 Z  M 15 46 C 14.45 46 14 46.45 14 47 L 14 49 C 14 49.55 14.45 50 15 50 C 15.55 50 16 49.55 16 49 L 16 47 C 16 46.45 15.55 46 15 46 Z  M 20 46 C 19.45 46 19 46.45 19 47 L 19 49 C 19 49.55 19.45 50 20 50 C 20.55 50 21 49.55 21 49 L 21 47 C 21 46.45 20.55 46 20 46 Z  M 25 46 C 24.45 46 24 46.45 24 47 L 24 49 C 24 49.55 24.45 50 25 50 C 25.55 50 26 49.55 26 49 L 26 47 C 26 46.45 25.55 46 25 46 Z  M 30 46 C 29.45 46 29 46.45 29 47 L 29 49 C 29 49.55 29.45 50 30 50 C 30.55 50 31 49.55 31 49 L 31 47 C 31 46.45 30.55 46 30 46 Z  M 35 46 C 34.45 46 34 46.45 34 47 L 34 49 C 34 49.55 34.45 50 35 50 C 35.55 50 36 49.55 36 49 L 36 47 C 36 46.45 35.55 46 35 46 Z  M 40 46 C 39.45 46 39 46.45 39 47 L 39 49 C 39 49.55 39.45 50 40 50 C 40.55 50 41 49.55 41 49 L 41 47 C 41 46.45 40.55 46 40 46 Z  M 45 46 C 44.45 46 44 46.45 44 47 L 44 49 C 44 49.55 44.45 50 45 50 C 45.55 50 46 49.55 46 49 L 46 47 C 46 46.45 45.55 46 45 46 Z  M 50 46 C 49.45 46 49 46.45 49 47 L 49 49 C 49 49.55 49.45 50 50 50 C 50.55 50 51 49.55 51 49 L 51 47 C 51 46.45 50.55 46 50 46 Z  M 55 46 C 54.45 46 54 46.45 54 47 L 54 49 C 54 49.55 54.45 50 55 50 C 55.55 50 56 49.55 56 49 L 56 47 C 56 46.45 55.55 46 55 46 Z  M 29 32 L 35 32 C 35.55 32 36 31.55 36 31 C 36 30.45 35.55 30 35 30 L 29 30 C 26.239 30 24 27.761 24 25 L 24 19 C 24 16.239 26.239 14 29 14 L 31 14 C 33.761 14 36 16.239 36 19 L 36 25 C 36 25.55 35.55 26 35 26 C 34.45 26 34 25.55 34 25 L 34 20 C 34 17.79 32.21 16 30 16 C 27.79 16 26 17.79 26 20 L 26 24 C 26.009 25.583 26.951 27.012 28.402 27.645 C 29.855 28.277 31.544 27.994 32.711 26.922 C 33.522 27.88 34.844 28.231 36.023 27.801 C 37.203 27.373 37.992 26.255 38 25 L 38 19 C 38 15.133 34.867 12 31 12 L 29 12 C 25.133 12 22 15.133 22 19 L 22 25 C 22 28.867 25.133 32 29 32 Z  M 30 26 C 28.895 26 28 25.105 28 24 L 28 20 C 28 18.895 28.895 18 30 18 C 31.105 18 32 18.895 32 20 L 32 24 C 32 25.105 31.105 26 30 26 Z " fill="rgb(141,108,159)"/></g></g></svg>