<?xml version="1.0" encoding="UTF-8" standalone="no"?><!-- Generator: Gravit.io --><svg xmlns="http://www.w3.org/2000/svg" xmlns:xlink="http://www.w3.org/1999/xlink" style="isolation:isolate" viewBox="0 0 50 50" width="50pt" height="50pt"><defs><clipPath id="_clipPath_pxDb2GzVPNxiQeiJCsbbMHF6ezcAIYOt"><rect width="50" height="50"/></clipPath></defs><g clip-path="url(#_clipPath_pxDb2GzVPNxiQeiJCsbbMHF6ezcAIYOt)"><g><path d=" M 25.658 44.079 L 25.658 16.786 C 25.658 15.449 25.976 14.114 26.579 12.924 L 30.787 4.605 L 38.949 4.605 L 43.157 12.924 C 43.759 14.113 44.078 15.449 44.078 16.786 L 44.078 44.079 L 25.658 44.079 Z " fill="rgb(194,232,255)"/><path d=" M 38.545 5.263 L 42.571 13.221 C 43.128 14.321 43.421 15.553 43.421 16.786 L 43.421 43.421 L 26.316 43.421 L 26.316 16.786 C 26.316 15.554 26.609 14.321 27.166 13.222 L 31.192 5.263 L 38.545 5.263 Z  M 39.354 3.947 L 30.383 3.947 L 25.992 12.628 C 25.34 13.917 25 15.341 25 16.786 L 25 44.737 L 44.737 44.737 L 44.737 16.786 C 44.737 15.341 44.397 13.917 43.745 12.628 L 39.354 3.947 Z " fill="rgb(116,150,196)"/><path d=" M 43.421 43.421 L 26.316 43.421 L 26.316 16.786 C 26.316 15.554 26.609 14.321 27.166 13.222 L 42.571 13.222 C 43.129 14.327 43.42 15.548 43.421 16.786 L 43.421 43.421 Z " fill="rgb(255,255,255)"/><path d=" M 30.921 4.605 C 30.194 4.605 29.605 4.016 29.605 3.289 L 29.605 1.974 C 29.605 1.247 30.194 0.658 30.921 0.658 L 38.816 0.658 C 39.542 0.658 40.132 1.247 40.132 1.974 L 40.132 3.289 C 40.132 4.016 39.542 4.605 38.816 4.605 L 30.921 4.605 Z " fill="rgb(194,232,255)"/><path d=" M 38.816 1.316 C 39.179 1.316 39.474 1.61 39.474 1.974 L 39.474 3.289 C 39.474 3.653 39.179 3.947 38.816 3.947 L 30.921 3.947 C 30.558 3.947 30.263 3.653 30.263 3.289 L 30.263 1.974 C 30.263 1.61 30.558 1.316 30.921 1.316 L 38.816 1.316 Z  M 38.816 0 L 30.921 0 C 29.831 0 28.947 0.884 28.947 1.974 L 28.947 3.289 C 28.947 4.38 29.831 5.263 30.921 5.263 L 38.816 5.263 C 39.906 5.263 40.789 4.38 40.789 3.289 L 40.789 1.974 C 40.789 0.884 39.906 0 38.816 0 Z " fill="rgb(116,150,196)"/><circle vector-effect="non-scaling-stroke" cx="13.157894736842106" cy="25" r="9.868421052631579" fill="rgb(247,143,143)"/><path d=" M 13.158 15.789 C 18.237 15.789 22.368 19.921 22.368 25 C 22.368 30.079 18.237 34.211 13.158 34.211 C 8.079 34.211 3.947 30.079 3.947 25 C 3.947 19.921 8.079 15.789 13.158 15.789 Z  M 13.158 14.474 C 7.344 14.474 2.632 19.186 2.632 25 C 2.632 30.814 7.344 35.526 13.158 35.526 C 18.971 35.526 23.684 30.814 23.684 25 C 23.684 19.186 18.971 14.474 13.158 14.474 Z " fill="rgb(199,67,67)"/><path d=" M 32.166 15.333 L 43.341 26.508 L 9.814 31.297 L 32.166 15.333 Z " fill="rgb(255,238,163)"/><path d=" M 32.095 16.192 L 41.946 26.043 L 12.393 30.266 L 32.095 16.192 Z  M 32.237 14.474 L 7.237 32.33 L 44.737 26.974 L 32.237 14.474 Z " fill="rgb(186,155,72)"/><path d=" M 5.508 49.342 L 2.107 30.921 L 47.893 30.921 L 44.492 49.342 L 5.508 49.342 Z " fill="rgb(186,224,189)"/><path d=" M 47.103 31.579 L 43.945 48.684 L 6.055 48.684 L 2.897 31.579 L 47.103 31.579 Z  M 48.684 30.263 L 1.316 30.263 L 4.959 50 L 45.041 50 L 48.684 30.263 Z " fill="rgb(94,156,118)"/><mask id="_mask_2zMxhdVoXXAw1fyXag0QRxEvyDv3LoYA" x="-200%" y="-200%" width="400%" height="400%"><rect x="-200%" y="-200%" width="400%" height="400%" style="fill:white;"/><line x1="29.605" y1="36.184" x2="29.605" y2="44.079" fill="black" stroke="none"/></mask><line x1="29.605" y1="36.184" x2="29.605" y2="44.079" mask="url(#_mask_2zMxhdVoXXAw1fyXag0QRxEvyDv3LoYA)" vector-effect="non-scaling-stroke" stroke-width="2" stroke="rgb(94,156,118)" stroke-linejoin="round" stroke-linecap="round" stroke-miterlimit="10"/><mask id="_mask_uwXuygxAFq9GZyrYZuCs4iG7CZsina7m" x="-200%" y="-200%" width="400%" height="400%"><rect x="-200%" y="-200%" width="400%" height="400%" style="fill:white;"/><line x1="36.184" y1="36.184" x2="36.184" y2="44.079" fill="black" stroke="none"/></mask><line x1="36.184" y1="36.184" x2="36.184" y2="44.079" mask="url(#_mask_uwXuygxAFq9GZyrYZuCs4iG7CZsina7m)" vector-effect="non-scaling-stroke" stroke-width="2" stroke="rgb(94,156,118)" stroke-linejoin="round" stroke-linecap="round" stroke-miterlimit="10"/><mask id="_mask_2r1cZL6E3fnjNV4sOaVHUXjjwrSF7M3N" x="-200%" y="-200%" width="400%" height="400%"><rect x="-200%" y="-200%" width="400%" height="400%" style="fill:white;"/><line x1="20.395" y1="36.184" x2="20.395" y2="44.079" fill="black" stroke="none"/></mask><line x1="20.395" y1="36.184" x2="20.395" y2="44.079" mask="url(#_mask_2r1cZL6E3fnjNV4sOaVHUXjjwrSF7M3N)" vector-effect="non-scaling-stroke" stroke-width="2" stroke="rgb(94,156,118)" stroke-linejoin="round" stroke-linecap="round" stroke-miterlimit="10"/><mask id="_mask_wGoYVQiU9RxW1xZxEXZajMc4dD9teqGX" x="-200%" y="-200%" width="400%" height="400%"><rect x="-200%" y="-200%" width="400%" height="400%" style="fill:white;"/><line x1="13.816" y1="36.184" x2="13.816" y2="44.079" fill="black" stroke="none"/></mask><line x1="13.816" y1="36.184" x2="13.816" y2="44.079" mask="url(#_mask_wGoYVQiU9RxW1xZxEXZajMc4dD9teqGX)" vector-effect="non-scaling-stroke" stroke-width="2" stroke="rgb(94,156,118)" stroke-linejoin="round" stroke-linecap="round" stroke-miterlimit="10"/><rect x="0.658" y="25.658" width="48.684" height="5.263" transform="matrix(1,0,0,1,0,0)" fill="rgb(186,224,189)"/><path d=" M 48.684 26.316 L 48.684 30.263 L 1.316 30.263 L 1.316 26.316 L 48.684 26.316 Z  M 50 25 L 0 25 L 0 31.579 L 50 31.579 L 50 25 Z " fill="rgb(94,156,118)"/></g></g></svg>