<?xml version="1.0" encoding="UTF-8" standalone="no"?><!-- Generator: Gravit.io --><svg xmlns="http://www.w3.org/2000/svg" xmlns:xlink="http://www.w3.org/1999/xlink" style="isolation:isolate" viewBox="0 0 50 50" width="50pt" height="50pt"><defs><clipPath id="_clipPath_yG4BGFDVjRnMNlQcgdoNHEhBFSOUBWbE"><rect width="50" height="50"/></clipPath></defs><g clip-path="url(#_clipPath_yG4BGFDVjRnMNlQcgdoNHEhBFSOUBWbE)"><g><path d=" M 45.312 21.094 L 45.047 19.241 C 44.695 16.84 43.995 14.504 42.969 12.305 L 39.844 5.469 L 32.031 5.469 L 29.687 10.547 L 29.687 21.14 L 45.312 21.094 Z " fill="rgb(250,239,222)"/><path d=" M 17.297 20.984 L 5.641 21.094 L 11.524 15.21 L 17.297 20.984 Z " fill="rgb(133,203,248)"/><path d=" M 29.516 20.923 L 11.109 21.094 L 20.398 11.805 L 29.516 20.923 Z " fill="rgb(114,202,175)"/><path d=" M 39.219 26.648 C 38.867 26.992 38.43 27.234 37.952 27.353 C 36.549 27.714 35.455 28.81 35.095 30.212 C 34.977 30.689 34.734 31.125 34.391 31.476 C 32.502 33.368 24.641 32.593 20.804 28.757 C 18.82 26.773 16.984 22.312 20.499 18.796 C 21.31 17.973 22.395 17.479 23.548 17.407 C 24.402 17.339 25.081 16.66 25.149 15.805 C 25.229 14.652 25.732 13.57 26.562 12.766 C 30.078 9.25 34.539 11.087 36.523 13.07 C 40.335 16.898 41.11 24.758 39.219 26.648 Z " fill="rgb(237,120,153)"/><path d=" M 43.21 47.656 L 6.789 47.656 C 6.017 47.667 5.353 47.112 5.227 46.35 L 2.344 28.906 C 1.481 28.906 0.781 28.207 0.781 27.344 L 0.781 22.656 C 0.781 21.793 1.481 21.094 2.344 21.094 L 47.656 21.094 C 48.519 21.094 49.219 21.793 49.219 22.656 L 49.219 27.344 C 49.219 28.207 48.519 28.906 47.656 28.906 L 44.751 46.35 C 44.624 47.102 43.974 47.654 43.211 47.656 L 43.21 47.656 Z " fill="rgb(194,205,231)"/><path d=" M 44.531 47.656 L 5.469 47.656 L 5.173 46.475 C 5.054 46.008 5.158 45.512 5.454 45.132 C 5.751 44.752 6.206 44.53 6.687 44.531 L 43.312 44.531 C 43.794 44.531 44.249 44.753 44.545 45.133 C 44.841 45.513 44.945 46.008 44.827 46.475 L 44.531 47.656 Z  M 44.953 32.812 L 5.047 32.812 C 3.931 32.812 2.97 32.024 2.75 30.93 L 2.344 28.906 L 47.656 28.906 L 47.25 30.93 C 47.03 32.024 46.069 32.812 44.953 32.812 Z " fill="rgb(172,183,208)"/><path d=" M 30.469 2.344 L 41.406 2.344 L 41.406 5.469 L 30.469 5.469 L 30.469 2.344 Z  M 24.31 11.826 C 22.94 9.455 20.633 8.221 19.156 9.073 C 17.682 9.924 17.594 12.54 18.963 14.911 C 20.334 17.285 22.641 18.518 24.118 17.666 C 25.592 16.812 25.68 14.2 24.31 11.826 Z " fill="rgb(249,227,174)"/><path d=" M 3.125 21.094 L 46.875 21.094 C 48.169 21.094 49.219 22.143 49.219 23.437 L 49.219 26.562 C 49.219 27.857 48.169 28.906 46.875 28.906 L 3.125 28.906 C 1.831 28.906 0.781 27.857 0.781 26.562 L 0.781 23.437 C 0.781 22.143 1.831 21.094 3.125 21.094 Z " fill="rgb(214,223,242)"/><path d=" M 2.734 21.094 L 47.266 21.094 C 47.913 21.094 48.437 21.618 48.437 22.266 C 48.437 22.913 47.913 23.437 47.266 23.437 L 2.734 23.437 C 2.087 23.437 1.562 22.913 1.562 22.266 C 1.562 21.618 2.087 21.094 2.734 21.094 Z " fill="rgb(226,233,247)"/><path d=" M 47.656 20.312 L 45.993 20.312 L 45.819 19.131 C 45.464 16.656 44.751 14.245 43.704 11.975 L 40.936 5.969 C 41.878 5.461 42.356 4.38 42.099 3.341 C 41.842 2.303 40.914 1.571 39.844 1.562 L 32.031 1.562 C 30.961 1.571 30.033 2.303 29.776 3.341 C 29.519 4.38 29.997 5.461 30.939 5.969 L 29.071 10.016 C 27.821 10.318 26.656 10.9 25.664 11.719 C 25.589 11.536 25.503 11.359 25.405 11.187 C 23.796 8.408 19.616 7.962 19.436 7.947 C 19.106 7.916 18.793 8.097 18.655 8.398 C 18.017 9.875 17.733 11.48 17.827 13.086 L 14.062 16.867 L 12.039 14.844 C 11.746 14.551 11.349 14.386 10.934 14.386 C 10.52 14.386 10.123 14.551 9.827 14.844 L 4.358 20.312 L 2.344 20.312 C 1.049 20.312 0 21.362 0 22.656 L 0 27.344 C 0 28.375 0.677 29.287 1.663 29.587 L 4.477 46.475 C 4.665 47.619 5.661 48.453 6.82 48.437 L 43.211 48.437 C 44.37 48.453 45.366 47.619 45.555 46.475 L 48.368 29.587 C 49.343 29.275 50.003 28.367 50 27.344 L 50 22.656 C 50 21.362 48.951 20.312 47.656 20.312 Z  M 44.275 19.36 L 44.416 20.312 L 40.866 20.312 C 40.387 17.38 39.066 14.649 37.063 12.454 C 35.475 10.74 33.243 9.766 30.906 9.766 L 32.531 6.25 L 39.342 6.25 L 42.287 12.634 C 43.273 14.768 43.942 17.034 44.274 19.361 L 44.275 19.36 Z  M 32.031 3.125 L 39.844 3.125 C 40.273 3.125 40.625 3.476 40.625 3.906 C 40.625 4.336 40.273 4.687 39.844 4.687 L 32.031 4.687 C 31.602 4.687 31.25 4.336 31.25 3.906 C 31.25 3.476 31.602 3.125 32.031 3.125 Z  M 25.22 18.008 C 25.824 16.601 26.11 15.078 26.062 13.547 C 26.148 13.445 26.227 13.351 26.321 13.257 C 27.616 11.981 29.378 11.29 31.195 11.346 C 33.013 11.406 34.726 12.207 35.937 13.562 C 37.654 15.459 38.809 17.796 39.273 20.312 L 19.43 20.312 C 19.659 19.98 19.921 19.672 20.211 19.391 C 20.906 18.694 21.813 18.249 22.789 18.125 C 23.334 18.281 23.89 18.393 24.453 18.46 L 24.529 18.46 C 24.826 18.454 25.094 18.278 25.219 18.008 L 25.22 18.008 Z  M 19.852 9.625 C 20.914 9.826 23.141 10.406 24.039 11.969 C 24.939 13.531 24.353 15.766 24.039 16.787 C 22.977 16.586 20.749 16.006 19.852 14.444 C 18.955 12.881 19.531 10.647 19.852 9.625 L 19.852 9.625 Z  M 18.46 15.225 C 18.973 16.05 19.692 16.726 20.547 17.187 C 20.005 17.467 19.51 17.828 19.078 18.258 C 18.492 18.863 18.004 19.556 17.634 20.312 L 12.822 20.312 L 18.291 14.844 C 18.336 14.978 18.391 15.1 18.461 15.225 L 18.46 15.225 Z  M 10.937 15.945 L 12.961 17.969 L 10.617 20.312 L 6.57 20.312 L 10.937 15.945 Z  M 48.437 27.344 C 48.437 27.773 48.086 28.125 47.656 28.125 C 47.269 28.119 46.936 28.399 46.875 28.781 L 43.977 46.228 C 43.911 46.607 43.58 46.882 43.195 46.875 L 6.789 46.875 C 6.405 46.882 6.073 46.607 6.008 46.228 L 3.266 29.687 L 38.281 29.687 C 38.711 29.687 39.062 29.336 39.062 28.906 C 39.062 28.476 38.711 28.125 38.281 28.125 L 2.344 28.125 C 1.914 28.125 1.562 27.773 1.562 27.344 L 1.562 22.656 C 1.562 22.226 1.914 21.875 2.344 21.875 L 47.656 21.875 C 48.086 21.875 48.437 22.226 48.437 22.656 L 48.437 27.344 Z " fill="rgb(141,108,159)"/><path d=" M 7.812 32.031 C 7.812 31.601 7.461 31.25 7.031 31.25 C 6.602 31.25 6.25 31.601 6.25 32.031 L 6.25 33.594 C 6.25 34.023 6.602 34.375 7.031 34.375 C 7.461 34.375 7.812 34.023 7.812 33.594 L 7.812 32.031 Z  M 10.937 34.375 C 11.367 34.375 11.719 34.023 11.719 33.594 L 11.719 32.031 C 11.719 31.601 11.367 31.25 10.937 31.25 C 10.508 31.25 10.156 31.601 10.156 32.031 L 10.156 33.594 C 10.156 34.023 10.508 34.375 10.937 34.375 Z  M 14.844 34.375 C 15.273 34.375 15.625 34.023 15.625 33.594 L 15.625 32.031 C 15.625 31.601 15.273 31.25 14.844 31.25 C 14.414 31.25 14.062 31.601 14.062 32.031 L 14.062 33.594 C 14.062 34.023 14.414 34.375 14.844 34.375 Z  M 18.75 34.375 C 19.18 34.375 19.531 34.023 19.531 33.594 L 19.531 32.031 C 19.531 31.601 19.18 31.25 18.75 31.25 C 18.32 31.25 17.969 31.601 17.969 32.031 L 17.969 33.594 C 17.969 34.023 18.32 34.375 18.75 34.375 Z  M 22.656 34.375 C 23.086 34.375 23.437 34.023 23.437 33.594 L 23.437 32.031 C 23.437 31.601 23.086 31.25 22.656 31.25 C 22.227 31.25 21.875 31.601 21.875 32.031 L 21.875 33.594 C 21.875 34.023 22.227 34.375 22.656 34.375 Z  M 27.344 34.375 C 27.773 34.375 28.125 34.023 28.125 33.594 L 28.125 32.031 C 28.125 31.601 27.773 31.25 27.344 31.25 C 26.914 31.25 26.562 31.601 26.562 32.031 L 26.562 33.594 C 26.562 34.023 26.914 34.375 27.344 34.375 Z  M 31.25 34.375 C 31.68 34.375 32.031 34.023 32.031 33.594 L 32.031 32.031 C 32.031 31.601 31.68 31.25 31.25 31.25 C 30.82 31.25 30.469 31.601 30.469 32.031 L 30.469 33.594 C 30.469 34.023 30.82 34.375 31.25 34.375 Z  M 35.156 31.25 C 34.727 31.25 34.375 31.601 34.375 32.031 L 34.375 33.594 C 34.375 34.023 34.727 34.375 35.156 34.375 C 35.586 34.375 35.937 34.023 35.937 33.594 L 35.937 32.031 C 35.937 31.601 35.586 31.25 35.156 31.25 Z  M 39.062 34.375 C 39.492 34.375 39.844 34.023 39.844 33.594 L 39.844 32.031 C 39.844 31.601 39.492 31.25 39.062 31.25 C 38.633 31.25 38.281 31.601 38.281 32.031 L 38.281 33.594 C 38.281 34.023 38.633 34.375 39.062 34.375 Z  M 42.969 31.25 C 42.539 31.25 42.187 31.601 42.187 32.031 L 42.187 33.594 C 42.187 34.023 42.539 34.375 42.969 34.375 C 43.398 34.375 43.75 34.023 43.75 33.594 L 43.75 32.031 C 43.75 31.601 43.398 31.25 42.969 31.25 Z  M 41.406 43.75 L 38.281 43.75 C 37.852 43.75 37.5 44.101 37.5 44.531 C 37.5 44.961 37.852 45.312 38.281 45.312 L 41.406 45.312 C 41.836 45.312 42.187 44.961 42.187 44.531 C 42.187 44.101 41.836 43.75 41.406 43.75 Z  M 35.156 43.75 L 8.594 43.75 C 8.164 43.75 7.812 44.101 7.812 44.531 C 7.812 44.961 8.164 45.312 8.594 45.312 L 35.156 45.312 C 35.586 45.312 35.937 44.961 35.937 44.531 C 35.937 44.101 35.586 43.75 35.156 43.75 Z  M 44.531 28.125 L 41.406 28.125 C 40.977 28.125 40.625 28.476 40.625 28.906 C 40.625 29.336 40.977 29.687 41.406 29.687 L 44.531 29.687 C 44.961 29.687 45.312 29.336 45.312 28.906 C 45.312 28.476 44.961 28.125 44.531 28.125 Z " fill="rgb(141,108,159)"/></g></g></svg>