<?xml version="1.0" encoding="UTF-8" standalone="no"?><!-- Generator: Gravit.io --><svg xmlns="http://www.w3.org/2000/svg" xmlns:xlink="http://www.w3.org/1999/xlink" style="isolation:isolate" viewBox="0 0 50 50" width="50pt" height="50pt"><defs><clipPath id="_clipPath_wTUaGrFiPfIYzFvY6cYDac8jSvCI5og1"><rect width="50" height="50"/></clipPath></defs><g clip-path="url(#_clipPath_wTUaGrFiPfIYzFvY6cYDac8jSvCI5og1)"><g><path d=" M 33.065 45.771 C 33.065 46.245 32.877 46.701 32.541 47.036 C 32.205 47.372 31.75 47.561 31.275 47.56 C 30.452 47.566 29.756 46.951 29.662 46.133 L 28.226 33.044 L 33.065 33.044 L 33.065 45.771 Z " fill="rgb(250,239,222)"/><path d=" M 34.854 47.56 C 34.379 47.561 33.924 47.372 33.588 47.036 C 33.252 46.701 33.064 46.245 33.065 45.771 L 33.065 33.044 L 37.903 33.044 L 36.46 46.133 C 36.364 46.947 35.674 47.56 34.855 47.56 L 34.854 47.56 Z " fill="rgb(250,239,222)"/><path d=" M 43.548 27.295 L 42.282 18.424 C 41.828 15.232 39.086 12.866 35.862 12.883 L 32.542 12.883 C 29.33 12.882 26.607 15.244 26.153 18.424 L 19.806 33.746 C 19.742 34.229 27.378 34.657 27.87 34.657 L 40.534 34.657 C 40.767 34.658 40.989 34.559 41.143 34.384 C 41.298 34.21 41.37 33.977 41.34 33.746 L 40.845 30.139 L 41.46 30.634 C 42.874 30.176 43.755 28.768 43.548 27.296 L 43.548 27.295 Z " fill="rgb(237,120,153)"/><path d=" M 25.806 22.037 L 24.121 17.199 L 23.387 15.844 C 22.398 14.014 20.483 12.876 18.403 12.883 L 13.508 12.883 C 11.621 12.885 9.86 13.829 8.815 15.4 C 7.803 16.913 7.261 18.692 7.258 20.512 L 7.258 28.779 C 7.258 29.891 8.162 30.795 9.274 30.795 C 10.386 30.795 11.29 29.891 11.29 28.779 L 11.29 29.182 L 10.597 45.037 C 10.569 45.696 10.811 46.338 11.269 46.813 C 11.938 47.513 12.96 47.747 13.867 47.407 C 14.773 47.068 15.391 46.221 15.436 45.254 L 16.129 31.6 L 16.823 45.254 C 16.884 46.545 17.949 47.561 19.242 47.56 C 20.66 47.538 21.792 46.373 21.774 44.955 L 25.806 22.037 Z " fill="rgb(133,203,248)"/><path d=" M 37.903 6.431 C 37.903 8.658 36.098 10.463 33.871 10.463 C 31.644 10.463 29.839 8.658 29.839 6.431 C 29.839 4.204 31.644 2.399 33.871 2.399 C 36.098 2.399 37.903 4.204 37.903 6.431 Z  M 20.161 6.431 C 20.161 8.658 18.356 10.463 16.129 10.463 C 13.902 10.463 12.097 8.658 12.097 6.431 C 12.097 4.204 13.902 2.399 16.129 2.399 C 18.356 2.399 20.161 4.204 20.161 6.431 Z  M 29.032 20.544 C 28.991 22.518 27.378 24.097 25.403 24.097 C 23.428 24.097 21.816 22.518 21.774 20.544 C 21.816 18.57 23.428 16.991 25.403 16.991 C 27.378 16.991 28.991 18.57 29.032 20.544 L 29.032 20.544 Z " fill="rgb(250,239,222)"/><path d=" M 25.806 40.302 L 25.806 45.544 C 25.806 46.656 26.71 47.56 27.823 47.56 C 28.935 47.557 29.836 46.656 29.839 45.544 L 29.839 37.883 C 30.729 37.883 31.452 37.161 31.452 36.27 L 31.452 30.625 C 31.452 27.953 29.284 25.786 26.613 25.786 L 25 25.786 C 22.328 25.786 20.161 27.954 20.161 30.625 L 20.161 36.27 C 20.161 37.161 20.883 37.883 21.774 37.883 L 21.774 45.544 C 21.777 46.656 22.678 47.557 23.79 47.56 C 24.902 47.56 25.806 46.656 25.806 45.544 L 25.806 38.689" fill="rgb(114,202,175)"/><path d=" M 4.839 24.173 C 4.395 24.173 4.032 24.536 4.032 24.979 L 4.032 26.592 C 4.032 27.036 4.395 27.399 4.839 27.399 C 5.282 27.399 5.645 27.036 5.645 26.592 L 5.645 24.979 C 5.645 24.536 5.282 24.173 4.839 24.173 Z  M 0.806 24.173 C 0.363 24.173 0 24.536 0 24.979 L 0 26.592 C 0 27.036 0.363 27.399 0.806 27.399 C 1.25 27.399 1.613 27.036 1.613 26.592 L 1.613 24.979 C 1.613 24.536 1.25 24.173 0.806 24.173 Z  M 45.161 24.173 C 44.718 24.173 44.355 24.536 44.355 24.979 L 44.355 26.592 C 44.355 27.036 44.718 27.399 45.161 27.399 C 45.605 27.399 45.968 27.036 45.968 26.592 L 45.968 24.979 C 45.968 24.536 45.605 24.173 45.161 24.173 Z  M 49.194 24.173 C 48.75 24.173 48.387 24.536 48.387 24.979 L 48.387 26.592 C 48.387 27.036 48.75 27.399 49.194 27.399 C 49.637 27.399 50 27.036 50 26.592 L 50 24.979 C 50 24.536 49.637 24.173 49.194 24.173 Z  M 33.871 11.27 C 36.543 11.27 38.71 9.102 38.71 6.431 C 38.71 3.759 36.542 1.592 33.871 1.592 C 31.199 1.592 29.032 3.76 29.032 6.431 C 29.032 9.103 31.2 11.27 33.871 11.27 Z  M 33.871 3.205 C 35.653 3.205 37.097 4.649 37.097 6.431 C 37.097 8.213 35.653 9.657 33.871 9.657 C 32.089 9.657 30.645 8.213 30.645 6.431 C 30.645 4.649 32.089 3.205 33.871 3.205 Z  M 43.048 18.31 C 42.538 14.733 39.475 12.076 35.862 12.076 L 32.542 12.076 C 29.738 12.082 27.189 13.702 25.992 16.237 C 25.797 16.206 25.6 16.191 25.403 16.191 C 25.107 16.191 24.815 16.219 24.524 16.279 L 24.081 15.472 C 22.96 13.395 20.795 12.096 18.435 12.085 L 13.508 12.085 C 11.35 12.082 9.334 13.16 8.137 14.956 C 7.038 16.6 6.452 18.534 6.452 20.512 L 6.452 28.778 C 6.445 29.729 6.921 30.619 7.715 31.141 C 8.51 31.664 9.515 31.749 10.386 31.367 L 9.791 45.001 C 9.71 46.648 10.885 48.091 12.514 48.346 C 14.143 48.602 15.702 47.587 16.129 45.994 C 16.513 47.4 17.793 48.373 19.251 48.367 C 20.166 48.376 21.044 48.001 21.67 47.333 C 22.169 47.944 22.902 48.317 23.69 48.36 C 24.476 48.401 25.243 48.111 25.806 47.56 C 26.836 48.61 28.498 48.693 29.627 47.752 C 30.063 48.167 30.639 48.401 31.24 48.408 C 31.925 48.406 32.581 48.133 33.065 47.648 C 33.544 48.108 34.183 48.367 34.847 48.367 C 36.083 48.374 37.126 47.449 37.266 46.221 L 38.446 35.463 L 40.535 35.463 C 41 35.465 41.444 35.265 41.751 34.915 C 42.055 34.561 42.196 34.096 42.138 33.633 L 41.823 31.342 C 43.547 30.731 44.605 28.993 44.355 27.181 L 43.048 18.31 Z  M 25.129 17.658 L 25.485 17.658 C 26.034 17.665 26.572 17.835 27.026 18.15 C 28.282 18.108 29.424 18.879 29.853 20.061 C 30.282 21.243 29.902 22.567 28.912 23.341 C 27.921 24.115 26.545 24.164 25.502 23.462 C 24.508 24.227 23.135 24.267 22.099 23.56 C 21.062 22.854 20.597 21.562 20.945 20.357 C 21.294 19.152 22.377 18.308 23.631 18.264 C 24.059 17.917 24.58 17.707 25.129 17.658 Z  M 27.823 46.754 C 27.154 46.754 26.613 46.212 26.613 45.544 L 26.613 38.689 C 26.613 38.246 26.25 37.883 25.806 37.883 C 25.363 37.883 25 38.246 25 38.689 L 25 45.544 C 25 46.212 24.458 46.754 23.79 46.754 C 23.122 46.754 22.581 46.212 22.581 45.544 L 22.581 37.883 C 22.581 37.439 22.218 37.076 21.774 37.076 C 21.331 37.076 20.968 36.713 20.968 36.27 L 20.968 30.625 C 20.968 28.398 22.773 26.592 25 26.592 L 26.613 26.592 C 28.84 26.592 30.645 28.398 30.645 30.625 L 30.645 36.27 C 30.645 36.713 30.282 37.076 29.839 37.076 C 29.718 37.076 29.6 37.105 29.492 37.158 C 29.212 37.291 29.033 37.573 29.032 37.883 L 29.032 45.544 C 29.036 45.758 28.977 45.968 28.863 46.149 C 28.651 46.524 28.254 46.754 27.823 46.754 Z  M 31.275 46.754 C 30.96 46.754 30.673 46.571 30.541 46.287 C 30.614 46.046 30.648 45.796 30.645 45.544 L 30.645 38.55 C 31.613 38.21 32.258 37.296 32.258 36.27 L 32.258 45.771 C 32.258 46.313 31.818 46.753 31.275 46.754 L 31.275 46.754 Z  M 35.654 46.045 C 35.604 46.451 35.257 46.756 34.848 46.754 C 34.307 46.75 33.871 46.311 33.871 45.771 L 33.871 35.463 L 36.823 35.463 L 35.654 46.045 Z  M 41.595 29.679 L 40.058 18.326 C 39.999 17.886 39.595 17.575 39.154 17.633 C 38.716 17.69 38.406 18.09 38.46 18.528 L 40.533 33.85 L 32.258 33.85 L 32.258 30.625 C 32.258 27.506 29.731 24.979 26.613 24.979 L 25 24.979 C 21.881 24.979 19.355 27.506 19.355 30.625 L 19.355 36.27 C 19.355 37.296 20 38.21 20.968 38.55 L 20.968 44.955 C 20.986 45.928 20.214 46.732 19.242 46.754 C 18.379 46.755 17.668 46.076 17.629 45.213 L 16.935 31.56 C 16.935 31.117 16.573 30.754 16.129 30.754 C 15.685 30.754 15.323 31.117 15.323 31.56 L 14.629 45.223 C 14.587 46.113 13.834 46.802 12.944 46.763 C 12.053 46.723 11.364 45.968 11.403 45.078 L 12.097 29.181 L 12.097 19.035 C 12.097 18.592 11.734 18.229 11.29 18.229 C 10.847 18.229 10.484 18.592 10.484 19.035 L 10.484 28.713 C 10.484 29.381 9.942 29.922 9.274 29.922 C 8.606 29.922 8.065 29.381 8.065 28.713 L 8.065 20.512 C 8.065 18.848 8.556 17.226 9.476 15.842 C 10.374 14.494 11.888 13.686 13.508 13.688 L 18.403 13.688 C 20.18 13.688 21.815 14.664 22.663 16.227 L 23.025 16.898 C 21.387 17.965 20.661 19.993 21.25 21.857 C 21.839 23.721 23.598 24.964 25.552 24.896 C 27.504 24.829 29.173 23.471 29.637 21.574 C 30.098 19.674 29.237 17.7 27.532 16.744 C 28.5 14.869 30.433 13.691 32.543 13.689 L 35.863 13.689 C 38.67 13.688 41.051 15.75 41.452 18.528 L 42.742 27.399 C 42.874 28.324 42.417 29.234 41.595 29.679 Z  M 16.129 11.27 C 18.801 11.27 20.968 9.102 20.968 6.431 C 20.968 3.759 18.8 1.592 16.129 1.592 C 13.457 1.592 11.29 3.76 11.29 6.431 C 11.29 9.103 13.458 11.27 16.129 11.27 Z  M 16.129 3.205 C 17.911 3.205 19.355 4.649 19.355 6.431 C 19.355 8.213 17.911 9.657 16.129 9.657 C 14.347 9.657 12.903 8.213 12.903 6.431 C 12.903 4.649 14.347 3.205 16.129 3.205 Z " fill="rgb(141,108,159)"/></g></g></svg>