<?xml version="1.0" encoding="UTF-8" standalone="no"?><!-- Generator: Gravit.io --><svg xmlns="http://www.w3.org/2000/svg" xmlns:xlink="http://www.w3.org/1999/xlink" style="isolation:isolate" viewBox="0 0 50 50" width="50pt" height="50pt"><defs><clipPath id="_clipPath_EagReuLbFT0IaP9eigxpaaf7jcHLNERZ"><rect width="50" height="50"/></clipPath></defs><g clip-path="url(#_clipPath_EagReuLbFT0IaP9eigxpaaf7jcHLNERZ)"><g><path d=" M 49.233 25 C 49.233 37.086 39.437 46.881 27.352 46.881 C 15.266 46.881 5.47 37.086 5.47 25 C 5.47 12.915 15.266 3.119 27.352 3.119 C 39.437 3.119 49.233 12.915 49.233 25 Z " fill="rgb(114,202,175)"/><path d=" M 27.352 3.119 C 15.266 3.119 5.47 12.915 5.47 25 C 5.47 37.086 15.266 46.881 27.352 46.881 C 39.437 46.881 49.233 37.086 49.233 25 C 49.233 12.915 39.437 3.119 27.352 3.119 Z  M 27.352 42.192 C 19.621 42.193 12.841 37.035 10.779 29.585 C 8.718 22.135 11.882 14.227 18.512 10.253 C 25.142 6.278 33.611 7.219 39.208 12.551 L 39.739 13.073 C 44.631 18.155 45.923 25.709 43 32.128 C 40.206 38.258 34.089 42.193 27.352 42.192 Z " fill="rgb(249,227,174)"/><path d=" M 27.352 42.192 C 17.858 42.192 10.159 34.493 10.159 25 L 7.094 25 C 6.66 25 6.242 25.18 5.946 25.498 C 5.65 25.818 5.501 26.246 5.532 26.679 C 6.38 37.696 15.308 46.35 26.344 46.856 C 37.382 47.364 47.066 39.564 48.921 28.672 C 49.081 27.762 48.831 26.827 48.237 26.118 C 47.643 25.41 46.766 25.001 45.841 25 L 44.544 25.001 C 44.544 34.494 36.845 42.193 27.352 42.193 L 27.352 42.192 Z " fill="rgb(246,211,151)"/><path d=" M 27.352 2.337 C 15.135 2.331 5.111 12.008 4.689 24.219 L 4.689 25.782 C 5.116 38.187 15.447 47.94 27.856 47.657 C 40.264 47.373 50.136 37.161 49.999 24.75 C 49.862 12.338 39.764 2.344 27.352 2.337 Z  M 27.352 46.1 C 15.996 46.109 6.674 37.129 6.252 25.782 L 6.252 24.219 C 6.679 12.676 16.307 3.625 27.852 3.907 C 39.4 4.19 48.573 13.702 48.436 25.25 C 48.299 36.799 38.899 46.09 27.352 46.1 Z " fill="rgb(141,108,159)"/><path d=" M 27.352 39.848 C 26.922 39.848 26.57 40.2 26.57 40.63 L 26.57 42.192 C 26.57 42.622 26.922 42.974 27.352 42.974 C 27.781 42.974 28.133 42.622 28.133 42.192 L 28.133 40.63 C 28.133 40.2 27.781 39.848 27.352 39.848 Z  M 32.04 39.909 C 31.923 39.497 31.497 39.256 31.084 39.368 C 30.671 39.48 30.425 39.904 30.532 40.319 L 30.938 41.827 C 31.069 42.226 31.49 42.452 31.895 42.341 C 32.299 42.23 32.546 41.821 32.455 41.411 L 32.04 39.909 Z  M 20.123 37.91 C 19.942 37.807 19.729 37.778 19.527 37.83 C 19.326 37.885 19.155 38.019 19.051 38.2 L 18.269 39.552 C 18.081 39.922 18.215 40.376 18.575 40.583 C 18.935 40.791 19.395 40.682 19.622 40.333 L 20.403 38.981 C 20.509 38.802 20.538 38.589 20.486 38.387 C 20.433 38.186 20.303 38.015 20.123 37.91 Z  M 35.652 38.199 C 35.427 37.846 34.963 37.732 34.601 37.943 C 34.237 38.151 34.104 38.611 34.3 38.981 L 35.081 40.333 C 35.306 40.687 35.769 40.8 36.132 40.591 C 36.494 40.381 36.627 39.923 36.433 39.552 L 35.652 38.199 Z  M 23.608 39.357 C 23.192 39.247 22.765 39.494 22.653 39.909 L 22.247 41.411 C 22.163 41.685 22.235 41.982 22.435 42.187 C 22.634 42.392 22.93 42.471 23.206 42.394 C 23.481 42.317 23.691 42.096 23.755 41.817 L 24.165 40.309 C 24.272 39.893 24.024 39.468 23.609 39.357 L 23.608 39.357 Z  M 35.087 10.427 C 35.446 10.424 35.758 10.177 35.842 9.827 C 35.925 9.477 35.76 9.115 35.441 8.949 C 34.857 8.656 34.257 8.395 33.643 8.168 C 33.379 8.049 33.07 8.088 32.843 8.269 C 32.614 8.448 32.505 8.74 32.559 9.026 C 32.611 9.31 32.819 9.542 33.097 9.628 C 33.655 9.838 34.202 10.079 34.736 10.348 C 34.845 10.399 34.968 10.427 35.087 10.427 L 35.087 10.427 Z  M 30.202 7.253 C 21.304 5.838 12.733 11.235 10.159 19.874 C 10.098 20.153 10.19 20.443 10.402 20.636 C 10.613 20.829 10.911 20.894 11.183 20.807 C 11.455 20.72 11.661 20.495 11.722 20.216 C 14.109 12.401 21.887 7.533 29.962 8.799 C 30.391 8.869 30.798 8.573 30.868 8.142 C 30.938 7.712 30.642 7.306 30.212 7.236 L 30.202 7.253 Z  M 10.098 30.034 C 10.944 32.933 12.507 35.572 14.643 37.708 C 14.953 37.973 15.415 37.955 15.704 37.667 C 15.993 37.378 16.011 36.916 15.745 36.606 C 13.821 34.676 12.406 32.3 11.627 29.689 C 11.572 29.409 11.37 29.18 11.098 29.092 C 10.826 29.005 10.528 29.072 10.32 29.268 C 10.112 29.463 10.027 29.757 10.098 30.034 Z  M 40.06 12.292 C 39.544 11.776 38.997 11.291 38.427 10.838 C 38.208 10.642 37.899 10.584 37.624 10.687 C 37.349 10.788 37.155 11.036 37.123 11.327 C 37.089 11.618 37.221 11.904 37.465 12.066 C 37.987 12.48 38.485 12.924 38.957 13.394 C 45.365 19.805 45.365 30.196 38.957 36.607 C 38.734 36.797 38.636 37.096 38.704 37.382 C 38.774 37.665 38.997 37.888 39.281 37.958 C 39.568 38.026 39.868 37.931 40.06 37.708 C 47.074 30.687 47.074 19.313 40.06 12.292 Z " fill="rgb(141,108,159)"/><path d=" M 0.781 22.656 L 23.444 22.656 L 20.318 19.53 L 23.444 16.404 L 32.04 25 L 23.444 33.596 L 20.318 30.47 L 23.444 27.345 L 0.781 27.345 L 0.781 22.656 Z " fill="rgb(250,239,222)"/><path d=" M 32.595 24.445 L 23.999 15.849 C 23.694 15.547 23.202 15.547 22.897 15.849 L 19.771 18.975 C 19.469 19.28 19.469 19.772 19.771 20.077 L 21.561 21.874 L 0.781 21.874 C 0.352 21.874 0 22.226 0 22.656 L 0 27.345 C 0 27.774 0.352 28.126 0.781 28.126 L 21.561 28.126 L 19.771 29.916 C 19.469 30.221 19.469 30.712 19.771 31.017 L 22.897 34.143 C 23.203 34.445 23.694 34.445 23.999 34.143 L 32.595 25.547 C 32.898 25.242 32.898 24.75 32.595 24.445 Z  M 23.444 32.494 L 21.42 30.47 L 23.991 27.899 C 24.216 27.677 24.284 27.341 24.164 27.048 C 24.044 26.756 23.76 26.564 23.444 26.563 L 1.563 26.563 L 1.563 23.437 L 23.444 23.437 C 23.762 23.439 24.049 23.249 24.17 22.955 C 24.292 22.662 24.224 22.324 23.999 22.101 L 21.42 19.53 L 23.444 17.506 L 30.938 25 L 23.444 32.494 Z " fill="rgb(141,108,159)"/></g></g></svg>