<?xml version="1.0" encoding="UTF-8" standalone="no"?><!-- Generator: Gravit.io --><svg xmlns="http://www.w3.org/2000/svg" xmlns:xlink="http://www.w3.org/1999/xlink" style="isolation:isolate" viewBox="0 0 50 50" width="50pt" height="50pt"><defs><clipPath id="_clipPath_vUnuFcI6HIfOaNC91IRPwkhRvs1iZR59"><rect width="50" height="50"/></clipPath></defs><g clip-path="url(#_clipPath_vUnuFcI6HIfOaNC91IRPwkhRvs1iZR59)"><g><path d=" M 6.25 0.893 L 49.107 0.893 L 49.107 49.107 L 6.25 49.107 L 6.25 0.893 Z " fill="rgb(250,239,222)"/><path d=" M 9.821 37.5 L 45.536 37.5 C 47.509 37.5 49.107 39.098 49.107 41.071 L 49.107 49.107 L 6.25 49.107 L 6.25 41.071 C 6.25 39.098 7.848 37.5 9.821 37.5 Z " fill="rgb(239,216,190)"/><path d=" M 2.679 43.75 L 41.964 43.75 C 42.951 43.75 43.75 44.549 43.75 45.536 L 43.75 47.321 C 43.75 48.308 42.951 49.107 41.964 49.107 L 2.679 49.107 C 1.692 49.107 0.893 48.308 0.893 47.321 L 0.893 45.536 C 0.893 44.549 1.692 43.75 2.679 43.75 Z " fill="rgb(239,216,190)"/><path d=" M 47.321 0 L 8.036 0 C 6.556 0 5.357 1.199 5.357 2.679 L 5.357 42.857 L 1.786 42.857 C 0.799 42.857 0 43.657 0 44.643 L 0 46.429 C 0 48.402 1.598 50 3.571 50 L 46.429 50 C 48.402 50 50 48.402 50 46.429 L 50 2.679 C 50 1.199 48.801 0 47.321 0 Z  M 3.571 48.214 C 2.585 48.214 1.786 47.415 1.786 46.429 L 1.786 44.643 L 42.857 44.643 L 42.857 46.429 C 42.864 47.056 43.036 47.674 43.356 48.214 L 3.571 48.214 Z  M 48.214 46.429 C 48.214 47.415 47.415 48.214 46.429 48.214 C 45.442 48.214 44.643 47.415 44.643 46.429 L 44.643 44.643 C 44.643 43.657 43.843 42.857 42.857 42.857 L 7.143 42.857 L 7.143 2.679 C 7.143 2.188 7.545 1.786 8.036 1.786 L 47.321 1.786 C 47.812 1.786 48.214 2.188 48.214 2.679 L 48.214 46.429 Z " fill="rgb(141,108,159)"/><path d=" M 10.714 35.714 C 10.223 35.714 9.821 36.116 9.821 36.607 L 9.821 38.393 C 9.821 38.884 10.223 39.286 10.714 39.286 C 11.205 39.286 11.607 38.884 11.607 38.393 L 11.607 36.607 C 11.607 36.116 11.205 35.714 10.714 35.714 Z  M 15.179 35.714 C 14.687 35.714 14.286 36.116 14.286 36.607 L 14.286 38.393 C 14.286 38.884 14.687 39.286 15.179 39.286 C 15.67 39.286 16.071 38.884 16.071 38.393 L 16.071 36.607 C 16.071 36.116 15.67 35.714 15.179 35.714 Z  M 19.643 35.714 C 19.152 35.714 18.75 36.116 18.75 36.607 L 18.75 38.393 C 18.75 38.884 19.152 39.286 19.643 39.286 C 20.134 39.286 20.536 38.884 20.536 38.393 L 20.536 36.607 C 20.536 36.116 20.134 35.714 19.643 35.714 Z  M 24.107 35.714 C 23.616 35.714 23.214 36.116 23.214 36.607 L 23.214 38.393 C 23.214 38.884 23.616 39.286 24.107 39.286 C 24.598 39.286 25 38.884 25 38.393 L 25 36.607 C 25 36.116 24.598 35.714 24.107 35.714 Z  M 28.571 35.714 C 28.08 35.714 27.679 36.116 27.679 36.607 L 27.679 38.393 C 27.679 38.884 28.08 39.286 28.571 39.286 C 29.062 39.286 29.464 38.884 29.464 38.393 L 29.464 36.607 C 29.464 36.116 29.062 35.714 28.571 35.714 Z  M 33.036 35.714 C 32.545 35.714 32.143 36.116 32.143 36.607 L 32.143 38.393 C 32.143 38.884 32.545 39.286 33.036 39.286 C 33.527 39.286 33.929 38.884 33.929 38.393 L 33.929 36.607 C 33.929 36.116 33.527 35.714 33.036 35.714 Z  M 37.5 35.714 C 37.009 35.714 36.607 36.116 36.607 36.607 L 36.607 38.393 C 36.607 38.884 37.009 39.286 37.5 39.286 C 37.991 39.286 38.393 38.884 38.393 38.393 L 38.393 36.607 C 38.393 36.116 37.991 35.714 37.5 35.714 Z  M 41.964 35.714 C 41.473 35.714 41.071 36.116 41.071 36.607 L 41.071 38.393 C 41.071 38.884 41.473 39.286 41.964 39.286 C 42.455 39.286 42.857 38.884 42.857 38.393 L 42.857 36.607 C 42.857 36.116 42.455 35.714 41.964 35.714 Z  M 46.429 35.714 C 45.938 35.714 45.536 36.116 45.536 36.607 L 45.536 38.393 C 45.536 38.884 45.938 39.286 46.429 39.286 C 46.92 39.286 47.321 38.884 47.321 38.393 L 47.321 36.607 C 47.321 36.116 46.92 35.714 46.429 35.714 Z " fill="rgb(141,108,159)"/><path d=" M 34.821 10.714 L 40.179 10.714 C 40.67 10.714 41.071 10.313 41.071 9.821 C 41.071 9.33 40.67 8.929 40.179 8.929 L 34.821 8.929 C 34.33 8.929 33.929 9.33 33.929 9.821 C 33.929 10.313 34.33 10.714 34.821 10.714 Z  M 24.107 10.714 L 31.25 10.714 C 31.741 10.714 32.143 10.313 32.143 9.821 C 32.143 9.33 31.741 8.929 31.25 8.929 L 24.107 8.929 C 23.616 8.929 23.214 9.33 23.214 9.821 C 23.214 10.313 23.616 10.714 24.107 10.714 Z  M 24.107 14.286 L 36.607 14.286 C 37.098 14.286 37.5 13.884 37.5 13.393 C 37.5 12.902 37.098 12.5 36.607 12.5 L 24.107 12.5 C 23.616 12.5 23.214 12.902 23.214 13.393 C 23.214 13.884 23.616 14.286 24.107 14.286 Z " fill="rgb(165,186,198)"/><path d=" M 37.5 25.893 C 37.5 25.402 37.098 25 36.607 25 L 34.821 25 C 34.33 25 33.929 25.402 33.929 25.893 C 33.929 26.384 34.33 26.786 34.821 26.786 L 36.607 26.786 C 37.098 26.786 37.5 26.384 37.5 25.893 Z  M 31.25 25 L 24.107 25 C 23.616 25 23.214 25.402 23.214 25.893 C 23.214 26.384 23.616 26.786 24.107 26.786 L 31.25 26.786 C 31.741 26.786 32.143 26.384 32.143 25.893 C 32.143 25.402 31.741 25 31.25 25 Z " fill="rgb(235,150,151)"/><path d=" M 40.179 21.429 L 24.107 21.429 C 23.616 21.429 23.214 21.83 23.214 22.321 C 23.214 22.813 23.616 23.214 24.107 23.214 L 40.179 23.214 C 40.67 23.214 41.071 22.813 41.071 22.321 C 41.071 21.83 40.67 21.429 40.179 21.429 Z " fill="rgb(165,186,198)"/><path d=" M 19.643 20.536 L 19.643 17.857 C 19.643 16.378 18.444 15.179 16.964 15.179 L 15.179 15.179 C 14.687 15.179 14.286 14.777 14.286 14.286 L 14.286 11.607 C 14.286 11.116 14.687 10.714 15.179 10.714 L 16.964 10.714 C 17.455 10.714 17.857 11.116 17.857 11.607 L 17.857 12.5 C 17.857 12.991 18.259 13.393 18.75 13.393 C 19.241 13.393 19.643 12.991 19.643 12.5 L 19.643 11.607 C 19.643 10.128 18.444 8.929 16.964 8.929 L 16.964 8.036 C 16.964 7.545 16.563 7.143 16.071 7.143 C 15.58 7.143 15.179 7.545 15.179 8.036 L 15.179 8.929 C 13.699 8.929 12.5 10.128 12.5 11.607 L 12.5 14.286 C 12.5 15.765 13.699 16.964 15.179 16.964 L 16.964 16.964 C 17.455 16.964 17.857 17.366 17.857 17.857 L 17.857 20.536 C 17.857 21.027 17.455 21.429 16.964 21.429 L 15.179 21.429 C 14.687 21.429 14.286 21.027 14.286 20.536 L 14.286 19.643 C 14.286 19.152 13.884 18.75 13.393 18.75 C 12.902 18.75 12.5 19.152 12.5 19.643 L 12.5 20.536 C 12.5 22.015 13.699 23.214 15.179 23.214 L 15.179 24.107 C 15.179 24.598 15.58 25 16.071 25 C 16.563 25 16.964 24.598 16.964 24.107 L 16.964 23.214 C 18.444 23.214 19.643 22.015 19.643 20.536 Z " fill="rgb(152,199,124)"/><path d=" M 7.143 1.786 L 48.214 1.786 L 48.214 3.571 C 48.214 4.558 47.415 5.357 46.429 5.357 L 8.929 5.357 C 7.942 5.357 7.143 4.558 7.143 3.571 L 7.143 1.786 Z " fill="rgb(255,247,240)"/></g></g></svg>