<?xml version="1.0" encoding="UTF-8" standalone="no"?><!-- Generator: Gravit.io --><svg xmlns="http://www.w3.org/2000/svg" xmlns:xlink="http://www.w3.org/1999/xlink" style="isolation:isolate" viewBox="0 0 50 50" width="50pt" height="50pt"><defs><clipPath id="_clipPath_nlkKPiMG1psyXDycfNqOZEGRtZQKtOkb"><rect width="50" height="50"/></clipPath></defs><g clip-path="url(#_clipPath_nlkKPiMG1psyXDycfNqOZEGRtZQKtOkb)"><g><path d=" M 14.264 29.397 L 48.114 4.207 L 3.915 19.674 C 3.346 19.872 2.939 20.377 2.866 20.975 C 2.793 21.573 3.069 22.16 3.576 22.485 L 14.264 29.397 Z  M 22.924 33.333 L 49.688 4.207 L 37.738 40.802 C 37.579 41.262 37.214 41.623 36.751 41.777 C 36.289 41.931 35.781 41.862 35.377 41.589 L 22.924 33.333 Z " fill="rgb(250,239,222)"/><path d=" M 14.264 29.397 L 44.965 7.356 L 21.648 34.04 L 18.988 43.566 L 14.264 29.397 Z " fill="rgb(239,216,190)"/><path d=" M 21.349 40.418 L 22.136 34.12 L 25.285 35.695 L 21.349 40.418 Z " fill="rgb(246,211,151)"/><path d=" M 49.523 3.53 C 49.094 3.112 48.465 2.975 47.901 3.177 L 3.637 18.92 C 2.805 19.229 2.216 19.979 2.113 20.86 C 2.01 21.742 2.41 22.607 3.149 23.1 L 13.791 29.871 L 17.438 43.253 C 17.649 43.926 18.283 44.376 18.988 44.354 C 19.524 44.346 20.019 44.067 20.304 43.613 C 20.338 43.6 20.372 43.584 20.405 43.566 L 25.709 36.482 L 34.919 42.29 C 35.297 42.527 35.733 42.653 36.178 42.653 C 37.199 42.643 38.098 41.98 38.408 41.007 L 49.924 5.145 C 50.108 4.574 49.952 3.948 49.521 3.531 L 49.523 3.53 Z  M 3.637 21.021 C 3.671 20.722 3.873 20.469 4.157 20.369 L 45.484 5.701 L 14.264 28.297 L 4.031 21.777 C 3.764 21.624 3.61 21.329 3.637 21.021 Z  M 18.988 42.779 L 15.344 29.397 L 43.058 9.404 L 21.555 32.798 C 21.513 32.851 21.478 32.909 21.451 32.971 C 21.43 33.006 21.412 33.043 21.396 33.081 L 18.988 42.779 Z  M 21.349 39.631 L 22.625 34.538 L 24.381 35.695 L 21.349 39.631 Z  M 38.132 36.749 L 38.086 36.71 C 37.714 36.489 37.233 36.608 37.007 36.977 L 36.22 38.323 C 36.039 38.634 36.092 39.027 36.348 39.279 C 36.603 39.531 36.997 39.578 37.305 39.394 L 36.935 40.574 C 36.862 40.808 36.683 40.994 36.453 41.077 C 36.223 41.16 35.967 41.132 35.761 40.999 L 23.357 33.167 L 47.821 6.569 L 38.132 36.749 Z " fill="rgb(141,108,159)"/><path d=" M 12.131 36.885 L 0.323 45.489 C -0.027 45.745 -0.105 46.237 0.15 46.589 C 0.273 46.759 0.458 46.873 0.665 46.905 C 0.872 46.938 1.083 46.886 1.252 46.762 L 13.059 38.151 C 13.413 37.893 13.49 37.401 13.234 37.048 C 12.976 36.697 12.483 36.62 12.13 36.875 L 12.131 36.885 Z  M 2.361 39.882 C 2.528 39.883 2.691 39.83 2.826 39.732 L 6.762 36.86 C 6.991 36.695 7.115 36.421 7.087 36.141 C 7.059 35.86 6.883 35.616 6.627 35.5 C 6.37 35.384 6.071 35.414 5.842 35.578 L 1.906 38.45 C 1.628 38.65 1.512 39.007 1.619 39.332 C 1.724 39.655 2.028 39.876 2.37 39.874 L 2.361 39.882 Z  M 9.612 34.781 L 11.58 33.333 C 11.75 33.211 11.863 33.025 11.896 32.819 C 11.928 32.612 11.877 32.401 11.753 32.233 C 11.63 32.063 11.445 31.949 11.238 31.916 C 11.032 31.883 10.821 31.934 10.651 32.057 L 8.683 33.49 C 8.347 33.751 8.279 34.233 8.53 34.578 C 8.78 34.922 9.26 35.006 9.612 34.766 L 9.612 34.781 Z  M 14.956 26.248 L 15.744 24.902 C 15.894 24.54 15.754 24.122 15.415 23.924 C 15.076 23.724 14.642 23.806 14.399 24.114 L 13.612 25.461 C 13.462 25.823 13.604 26.242 13.942 26.442 C 14.28 26.639 14.713 26.556 14.956 26.248 Z  M 26.356 33.333 C 26.534 33.441 26.748 33.473 26.95 33.423 C 27.153 33.372 27.327 33.244 27.434 33.065 L 28.221 31.719 C 28.414 31.474 28.443 31.138 28.296 30.863 C 28.149 30.588 27.853 30.425 27.542 30.449 C 27.231 30.472 26.963 30.677 26.859 30.971 L 26.072 32.318 C 25.893 32.679 26.015 33.117 26.356 33.333 Z  M 29.731 35.388 C 30.1 35.601 30.572 35.483 30.795 35.12 L 31.583 33.773 C 31.772 33.533 31.805 33.204 31.665 32.931 C 31.526 32.657 31.24 32.489 30.933 32.499 C 30.626 32.512 30.353 32.703 30.236 32.986 L 29.449 34.332 C 29.244 34.703 29.369 35.169 29.732 35.387 L 29.731 35.388 Z  M 33.102 37.419 C 33.474 37.64 33.955 37.521 34.18 37.152 L 34.968 35.806 C 35.117 35.442 34.976 35.023 34.636 34.825 C 34.297 34.626 33.863 34.709 33.621 35.018 L 32.833 36.364 C 32.627 36.731 32.745 37.195 33.101 37.419 L 33.102 37.419 Z  M 8.754 19.738 C 8.576 19.631 8.362 19.598 8.159 19.648 C 7.957 19.699 7.782 19.827 7.675 20.006 L 6.888 21.353 C 6.739 21.716 6.881 22.133 7.22 22.331 C 7.558 22.53 7.991 22.448 8.235 22.14 L 9.022 20.794 C 9.228 20.427 9.111 19.963 8.754 19.739 L 8.754 19.738 Z  M 12.124 21.768 C 11.752 21.548 11.271 21.667 11.046 22.036 L 10.259 23.382 C 10.109 23.745 10.25 24.163 10.589 24.362 C 10.928 24.56 11.361 24.478 11.605 24.169 L 12.392 22.823 C 12.598 22.457 12.48 21.992 12.124 21.768 Z " fill="rgb(141,108,159)"/></g></g></svg>