<?xml version="1.0" encoding="UTF-8" standalone="no"?><!-- Generator: Gravit.io --><svg xmlns="http://www.w3.org/2000/svg" xmlns:xlink="http://www.w3.org/1999/xlink" style="isolation:isolate" viewBox="0 0 60 56" width="60pt" height="56pt"><defs><clipPath id="_clipPath_kxWgWM2DzEbiFo7OFBVQxiKTDeV4FYVW"><rect width="60" height="56"/></clipPath></defs><g clip-path="url(#_clipPath_kxWgWM2DzEbiFo7OFBVQxiKTDeV4FYVW)"><g><path d=" M 12.267 18.667 L 12.267 23.333 L 17.867 23.333 L 17.867 17.733 C 17.867 11.546 22.88 6.533 29.067 6.533 L 30.933 6.533 C 37.12 6.533 42.133 11.546 42.133 17.733 L 42.133 23.333 L 47.733 23.333 L 47.733 18.667 C 47.733 8.874 39.793 0.933 30 0.933 C 20.207 0.933 12.267 8.874 12.267 18.667 Z " fill="rgb(249,227,174)"/><path d=" M 12.267 18.667 L 12.267 23.333 L 17.867 23.333 L 17.867 17.733 C 17.867 11.546 22.88 6.533 29.067 6.533 L 30.933 6.533 C 37.12 6.533 42.133 11.546 42.133 17.733 L 42.133 23.333 L 47.733 23.333 L 47.733 18.667 C 47.733 8.874 39.793 0.933 30 0.933 C 20.207 0.933 12.267 8.874 12.267 18.667 Z " fill="rgb(249,227,174)"/><path d=" M 27.2 0.933 L 32.8 0.933 L 32.8 6.533 L 27.2 6.533 L 27.2 0.933 Z " fill="rgb(245,200,114)"/><path d=" M 9.467 23.333 L 50.533 23.333 C 52.08 23.333 53.333 24.587 53.333 26.133 L 53.333 52.267 C 53.333 53.813 52.08 55.067 50.533 55.067 L 9.467 55.067 C 7.92 55.067 6.667 53.813 6.667 52.267 L 6.667 26.133 C 6.667 24.587 7.92 23.333 9.467 23.333 Z " fill="rgb(194,205,231)"/><path d=" M 10.4 37.333 L 49.6 37.333 C 51.663 37.333 53.333 39.004 53.333 41.067 L 53.333 52.267 C 53.333 53.813 52.08 55.067 50.533 55.067 L 9.467 55.067 C 7.92 55.067 6.667 53.813 6.667 52.267 L 6.667 41.067 C 6.667 39.004 8.337 37.333 10.4 37.333 Z " fill="rgb(172,183,208)"/><path d=" M 51.467 22.4 L 48.667 22.4 L 48.667 17.733 C 48.667 7.941 40.726 0 30.933 0 L 29.067 0 C 19.274 0 11.333 7.941 11.333 17.733 L 11.333 22.4 L 8.533 22.4 C 6.987 22.4 5.733 23.654 5.733 25.2 L 5.733 53.2 C 5.733 54.746 6.987 56 8.533 56 L 51.467 56 C 53.013 56 54.267 54.746 54.267 53.2 L 54.267 25.2 C 54.267 23.654 53.013 22.4 51.467 22.4 Z  M 46.8 17.733 L 46.8 22.4 L 43.067 22.4 L 43.067 17.733 C 43.062 12.114 39.201 7.233 33.733 5.936 L 33.733 2.128 C 41.291 3.483 46.794 10.055 46.8 17.733 Z  M 29.067 7.467 L 30.933 7.467 C 36.602 7.467 41.2 12.064 41.2 17.733 L 41.2 22.4 L 18.8 22.4 L 18.8 17.733 C 18.8 12.064 23.398 7.467 29.067 7.467 Z  M 30.933 1.867 C 31.251 1.867 31.561 1.867 31.867 1.913 L 31.867 5.647 C 31.561 5.6 31.251 5.6 30.933 5.6 L 29.067 5.6 C 28.749 5.6 28.439 5.6 28.133 5.647 L 28.133 1.913 C 28.439 1.913 28.749 1.867 29.067 1.867 L 30.933 1.867 Z  M 13.2 17.733 C 13.207 10.055 18.709 3.481 26.267 2.129 L 26.267 5.936 C 20.799 7.233 16.938 12.114 16.933 17.733 L 16.933 22.4 L 13.2 22.4 L 13.2 17.733 Z  M 52.4 53.2 C 52.4 53.713 51.98 54.133 51.467 54.133 L 8.533 54.133 C 8.02 54.133 7.6 53.713 7.6 53.2 L 7.6 25.2 C 7.6 24.687 8.02 24.267 8.533 24.267 L 51.467 24.267 C 51.98 24.267 52.4 24.687 52.4 25.2 L 52.4 53.2 Z " fill="rgb(141,108,159)"/><path d=" M 49.6 50.4 L 45.867 50.4 C 45.353 50.4 44.933 50.82 44.933 51.333 C 44.933 51.847 45.353 52.267 45.867 52.267 L 49.6 52.267 C 50.113 52.267 50.533 51.847 50.533 51.333 C 50.533 50.82 50.113 50.4 49.6 50.4 Z  M 42.133 50.4 L 10.4 50.4 C 9.887 50.4 9.467 50.82 9.467 51.333 C 9.467 51.847 9.887 52.267 10.4 52.267 L 42.133 52.267 C 42.647 52.267 43.067 51.847 43.067 51.333 C 43.067 50.82 42.647 50.4 42.133 50.4 Z  M 18.8 37.333 C 18.8 38.364 17.964 39.2 16.933 39.2 C 15.902 39.2 15.067 38.364 15.067 37.333 C 15.067 36.302 15.902 35.467 16.933 35.467 C 17.964 35.467 18.8 36.302 18.8 37.333 Z  M 27.2 37.333 C 27.2 38.364 26.364 39.2 25.333 39.2 C 24.302 39.2 23.467 38.364 23.467 37.333 C 23.467 36.302 24.302 35.467 25.333 35.467 C 26.364 35.467 27.2 36.302 27.2 37.333 Z  M 35.6 37.333 C 35.6 38.364 34.764 39.2 33.733 39.2 C 32.702 39.2 31.867 38.364 31.867 37.333 C 31.867 36.302 32.702 35.467 33.733 35.467 C 34.764 35.467 35.6 36.302 35.6 37.333 Z  M 45.82 45.099 C 45.98 44.611 45.718 44.086 45.232 43.922 L 43.067 43.195 L 43.067 38.267 L 44 38.267 C 44.513 38.267 44.933 37.847 44.933 37.333 C 44.933 36.82 44.513 36.4 44 36.4 L 43.067 36.4 L 43.067 31.471 L 45.232 30.752 C 45.467 30.675 45.662 30.506 45.773 30.285 C 45.884 30.063 45.902 29.807 45.823 29.572 C 45.746 29.337 45.578 29.142 45.357 29.031 C 45.136 28.92 44.879 28.902 44.645 28.981 L 42.133 29.819 L 39.632 28.988 C 39.142 28.829 38.615 29.094 38.451 29.582 C 38.291 30.071 38.554 30.599 39.045 30.764 L 41.21 31.482 L 41.21 36.4 L 40.267 36.4 C 39.753 36.4 39.333 36.82 39.333 37.333 C 39.333 37.847 39.753 38.267 40.267 38.267 L 41.2 38.267 L 41.2 43.196 L 39.035 43.914 C 38.799 43.992 38.605 44.16 38.494 44.382 C 38.383 44.603 38.365 44.86 38.444 45.095 C 38.521 45.33 38.689 45.525 38.91 45.635 C 39.131 45.746 39.387 45.764 39.622 45.686 L 42.133 44.848 L 44.635 45.678 C 44.87 45.758 45.127 45.74 45.35 45.629 C 45.572 45.519 45.741 45.324 45.82 45.088 L 45.82 45.099 Z " fill="rgb(141,108,159)"/></g></g></svg>