<?xml version="1.0" encoding="UTF-8" standalone="no"?><!-- Generator: Gravit.io --><svg xmlns="http://www.w3.org/2000/svg" xmlns:xlink="http://www.w3.org/1999/xlink" style="isolation:isolate" viewBox="0 0 60 56" width="60pt" height="56pt"><defs><clipPath id="_clipPath_NelRECL3OIfd7qEgMfoUlRGH3ZUWOPCy"><rect width="60" height="56"/></clipPath></defs><g clip-path="url(#_clipPath_NelRECL3OIfd7qEgMfoUlRGH3ZUWOPCy)"><g><path d=" M 8.996 18.667 L 8.996 23.333 L 14.596 23.333 L 14.596 17.733 C 14.596 11.546 19.609 6.533 25.796 6.533 L 27.663 6.533 C 33.85 6.533 38.863 11.546 38.863 17.733 L 38.863 23.333 L 44.463 23.333 L 44.463 18.667 C 44.463 8.874 36.522 0.933 26.73 0.933 C 16.937 0.933 8.996 8.874 8.996 18.667 Z " fill="rgb(249,227,174)"/><path d=" M 23.93 0.933 L 29.53 0.933 L 29.53 6.533 L 23.93 6.533 L 23.93 0.933 Z " fill="rgb(245,200,114)"/><path d=" M 6.196 23.333 L 47.263 23.333 C 48.809 23.333 50.063 24.587 50.063 26.133 L 50.063 52.267 C 50.063 53.813 48.809 55.067 47.263 55.067 L 6.196 55.067 C 4.65 55.067 3.396 53.813 3.396 52.267 L 3.396 26.133 C 3.396 24.587 4.65 23.333 6.196 23.333 Z " fill="rgb(194,205,231)"/><path d=" M 7.13 37.333 L 46.33 37.333 C 48.392 37.333 50.063 39.004 50.063 41.067 L 50.063 52.267 C 50.063 53.813 48.809 55.067 47.263 55.067 L 6.196 55.067 C 4.65 55.067 3.396 53.813 3.396 52.267 L 3.396 41.067 C 3.396 39.004 5.067 37.333 7.13 37.333 Z " fill="rgb(172,183,208)"/><path d=" M 56.596 38.267 C 56.596 43.421 52.418 47.6 47.263 47.6 C 42.108 47.6 37.93 43.421 37.93 38.267 C 37.93 33.112 42.108 28.933 47.263 28.933 C 52.418 28.933 56.596 33.112 56.596 38.267 Z " fill="rgb(114,202,175)"/><path d=" M 46.33 50.4 L 42.596 50.4 C 42.083 50.4 41.663 50.82 41.663 51.333 C 41.663 51.847 42.083 52.267 42.596 52.267 L 46.33 52.267 C 46.843 52.267 47.263 51.847 47.263 51.333 C 47.263 50.82 46.843 50.4 46.33 50.4 Z  M 38.863 50.4 L 7.13 50.4 C 6.616 50.4 6.196 50.82 6.196 51.333 C 6.196 51.847 6.616 52.267 7.13 52.267 L 38.863 52.267 C 39.376 52.267 39.796 51.847 39.796 51.333 C 39.796 50.82 39.376 50.4 38.863 50.4 Z  M 15.53 37.333 C 15.53 38.364 14.694 39.2 13.663 39.2 C 12.632 39.2 11.796 38.364 11.796 37.333 C 11.796 36.302 12.632 35.467 13.663 35.467 C 14.694 35.467 15.53 36.302 15.53 37.333 Z  M 23.93 37.333 C 23.93 38.364 23.094 39.2 22.063 39.2 C 21.032 39.2 20.196 38.364 20.196 37.333 C 20.196 36.302 21.032 35.467 22.063 35.467 C 23.094 35.467 23.93 36.302 23.93 37.333 Z  M 32.33 37.333 C 32.33 38.364 31.494 39.2 30.463 39.2 C 29.432 39.2 28.596 38.364 28.596 37.333 C 28.596 36.302 29.432 35.467 30.463 35.467 C 31.494 35.467 32.33 36.302 32.33 37.333 Z " fill="rgb(141,108,159)"/><path d=" M 50.996 28.7 L 50.996 25.2 C 50.996 23.654 49.743 22.4 48.196 22.4 L 45.396 22.4 L 45.396 17.733 C 45.396 7.941 37.455 0 27.663 0 L 25.796 0 C 16.004 0 8.063 7.941 8.063 17.733 L 8.063 22.4 L 5.263 22.4 C 3.717 22.4 2.463 23.654 2.463 25.2 L 2.463 53.2 C 2.463 54.746 3.717 56 5.263 56 L 48.196 56 C 49.743 56 50.996 54.746 50.996 53.2 L 50.996 47.833 C 54.941 46.298 57.538 42.499 57.537 38.267 C 57.537 34.034 54.941 30.235 50.996 28.7 Z  M 43.53 17.733 L 43.53 22.4 L 39.796 22.4 L 39.796 17.733 C 39.792 12.114 35.93 7.233 30.463 5.936 L 30.463 2.128 C 38.021 3.483 43.524 10.055 43.53 17.733 Z  M 25.796 7.467 L 27.663 7.467 C 33.332 7.467 37.93 12.064 37.93 17.733 L 37.93 22.4 L 15.53 22.4 L 15.53 17.733 C 15.53 12.064 20.127 7.467 25.796 7.467 Z  M 27.663 1.867 C 27.98 1.867 28.29 1.867 28.596 1.913 L 28.596 5.647 C 28.29 5.6 27.98 5.6 27.663 5.6 L 25.796 5.6 C 25.479 5.6 25.169 5.6 24.863 5.647 L 24.863 1.913 C 25.169 1.913 25.479 1.867 25.796 1.867 L 27.663 1.867 Z  M 9.93 17.733 C 9.937 10.055 15.438 3.481 22.996 2.129 L 22.996 5.936 C 17.529 7.233 13.667 12.114 13.663 17.733 L 13.663 22.4 L 9.93 22.4 L 9.93 17.733 Z  M 49.13 53.2 C 49.13 53.713 48.71 54.133 48.196 54.133 L 5.263 54.133 C 4.75 54.133 4.33 53.713 4.33 53.2 L 4.33 25.2 C 4.33 24.687 4.75 24.267 5.263 24.267 L 48.196 24.267 C 48.71 24.267 49.13 24.687 49.13 25.2 L 49.13 28.168 C 45.082 27.429 40.984 29.174 38.714 32.605 C 36.446 36.039 36.446 40.494 38.714 43.928 C 40.984 47.359 45.082 49.105 49.13 48.365 L 49.13 53.2 Z  M 50.996 45.788 C 50.402 46.083 49.775 46.309 49.13 46.462 C 48.517 46.598 47.891 46.666 47.263 46.667 C 42.625 46.667 38.863 42.904 38.863 38.267 C 38.863 33.629 42.625 29.867 47.263 29.867 C 47.89 29.867 48.517 29.936 49.13 30.071 C 49.775 30.224 50.402 30.45 50.996 30.745 C 53.852 32.164 55.659 35.078 55.659 38.267 C 55.659 41.456 53.852 44.37 50.996 45.788 L 50.996 45.788 Z " fill="rgb(141,108,159)"/><path d=" M 50.334 35.12 L 46.012 39.445 L 44.146 37.578 C 43.775 37.261 43.223 37.282 42.879 37.627 C 42.534 37.972 42.512 38.524 42.83 38.894 L 45.396 41.414 C 45.76 41.774 46.348 41.774 46.712 41.414 L 51.659 36.4 C 51.976 36.03 51.955 35.478 51.61 35.133 C 51.265 34.788 50.713 34.767 50.343 35.084 L 50.334 35.12 Z " fill="rgb(249,239,222)"/></g></g></svg>