<?xml version="1.0" encoding="UTF-8" standalone="no"?><!-- Generator: Gravit.io --><svg xmlns="http://www.w3.org/2000/svg" xmlns:xlink="http://www.w3.org/1999/xlink" style="isolation:isolate" viewBox="0 0 50 50" width="50pt" height="50pt"><defs><clipPath id="_clipPath_YnDooQmBeh7xQDX4umGY8Sy3dY8ejlZm"><rect width="50" height="50"/></clipPath></defs><g clip-path="url(#_clipPath_YnDooQmBeh7xQDX4umGY8Sy3dY8ejlZm)"><g><path d=" M 49.226 25.169 C 49.226 37.143 39.52 46.849 27.546 46.849 C 15.572 46.849 5.867 37.143 5.867 25.169 C 5.867 13.195 15.572 3.49 27.546 3.49 C 39.52 3.49 49.226 13.195 49.226 25.169 Z " fill="rgb(133,203,248)"/><path d=" M 27.546 3.49 C 15.572 3.49 5.867 13.195 5.867 25.169 C 5.867 37.143 15.572 46.849 27.546 46.849 C 39.52 46.849 49.226 37.143 49.226 25.169 C 49.226 13.195 39.52 3.49 27.546 3.49 Z  M 27.546 42.203 C 19.888 42.203 13.17 37.093 11.126 29.712 C 9.085 22.331 12.219 14.495 18.788 10.558 C 25.358 6.62 33.748 7.552 39.293 12.835 L 39.82 13.352 C 44.666 18.387 45.947 25.871 43.05 32.231 C 40.282 38.305 34.221 42.203 27.546 42.203 Z " fill="rgb(194,205,231)"/><path d=" M 27.546 42.203 C 18.14 42.203 10.512 34.575 10.512 25.169 L 9.227 25.169 C 8.307 25.165 7.434 25.571 6.843 26.275 C 6.252 26.98 6.005 27.911 6.169 28.816 C 7.939 39.239 16.97 46.866 27.543 46.866 C 38.117 46.866 47.145 39.239 48.918 28.817 C 49.079 27.913 48.831 26.984 48.242 26.279 C 47.654 25.575 46.783 25.168 45.865 25.169 L 44.58 25.169 C 44.58 34.575 36.952 42.203 27.546 42.203 Z " fill="rgb(172,183,208)"/><path d=" M 27.546 2.715 C 15.146 2.715 5.093 12.769 5.093 25.169 C 5.093 37.57 15.146 47.623 27.546 47.623 C 39.947 47.623 50 37.57 50 25.169 C 50 12.769 39.947 2.715 27.546 2.715 Z  M 27.546 46.074 C 16.002 46.074 6.641 36.714 6.641 25.169 C 6.641 13.625 16.002 4.264 27.546 4.264 C 39.091 4.264 48.451 13.625 48.451 25.169 C 48.451 36.714 39.091 46.074 27.546 46.074 Z " fill="rgb(141,108,159)"/><path d=" M 27.546 39.88 C 27.12 39.88 26.772 40.229 26.772 40.655 L 26.772 42.203 C 26.772 42.629 27.12 42.977 27.546 42.977 C 27.972 42.977 28.321 42.629 28.321 42.203 L 28.321 40.655 C 28.321 40.229 27.972 39.88 27.546 39.88 Z  M 32.192 39.941 C 32.076 39.533 31.653 39.294 31.244 39.405 C 30.835 39.516 30.591 39.936 30.698 40.346 L 31.1 41.841 C 31.229 42.236 31.646 42.46 32.047 42.35 C 32.448 42.24 32.693 41.835 32.602 41.429 L 32.192 39.941 Z  M 20.384 37.96 C 20.206 37.858 19.994 37.829 19.794 37.881 C 19.595 37.935 19.426 38.068 19.322 38.247 L 18.548 39.587 C 18.397 39.827 18.389 40.131 18.528 40.379 C 18.667 40.626 18.93 40.779 19.214 40.775 C 19.498 40.772 19.757 40.613 19.888 40.361 L 20.662 39.022 C 20.767 38.844 20.796 38.632 20.744 38.433 C 20.692 38.234 20.562 38.064 20.384 37.96 Z  M 35.77 38.247 C 35.636 37.996 35.377 37.838 35.093 37.834 C 34.809 37.83 34.545 37.982 34.406 38.229 C 34.27 38.477 34.275 38.779 34.43 39.022 L 35.205 40.361 C 35.336 40.613 35.594 40.772 35.878 40.775 C 36.162 40.779 36.425 40.626 36.564 40.379 C 36.703 40.131 36.695 39.827 36.544 39.587 L 35.77 38.247 Z  M 23.838 39.393 C 23.425 39.284 23.002 39.529 22.891 39.941 L 22.489 41.429 C 22.405 41.7 22.477 41.995 22.675 42.198 C 22.873 42.401 23.166 42.479 23.439 42.403 C 23.711 42.326 23.92 42.107 23.983 41.831 L 24.389 40.337 C 24.495 39.925 24.25 39.504 23.838 39.393 L 23.838 39.393 Z " fill="rgb(141,108,159)"/><path d=" M 36.837 24.395 L 28.321 24.395 L 28.321 15.878 C 28.321 15.452 27.972 15.104 27.546 15.104 C 27.12 15.104 26.772 15.452 26.772 15.878 L 26.772 24.395 L 18.255 24.395 C 17.829 24.395 17.481 24.743 17.481 25.169 C 17.481 25.595 17.829 25.943 18.255 25.943 L 26.772 25.943 L 26.772 34.46 C 26.772 34.886 27.12 35.235 27.546 35.235 C 27.972 35.235 28.321 34.886 28.321 34.46 L 28.321 25.943 L 36.837 25.943 C 37.263 25.943 37.612 25.595 37.612 25.169 C 37.612 24.743 37.263 24.395 36.837 24.395 Z " fill="rgb(250,239,222)"/><path d=" M 33.239 9.932 C 33.792 10.141 34.333 10.377 34.862 10.642 C 35.246 10.836 35.712 10.682 35.906 10.301 C 36.097 9.917 35.943 9.452 35.561 9.257 C 34.982 8.968 34.387 8.709 33.78 8.483 C 33.517 8.368 33.212 8.407 32.987 8.586 C 32.761 8.763 32.652 9.051 32.706 9.333 C 32.758 9.617 32.963 9.848 33.239 9.932 Z  M 16.047 13.67 C 19.745 9.99 24.98 8.298 30.132 9.119 C 30.558 9.188 30.961 8.894 31.03 8.468 C 31.1 8.042 30.806 7.64 30.38 7.57 C 24.923 2.134 16.59 0.822 9.726 4.318 C 2.863 7.815 -0.975 15.328 0.215 22.938 C 1.404 30.549 7.352 36.532 14.955 37.767 C 15.262 38.03 15.72 38.012 16.006 37.726 C 16.292 37.44 16.31 36.982 16.047 36.675 C 9.692 30.323 9.692 20.022 16.047 13.67 Z  M 40.137 12.578 C 39.626 12.067 39.084 11.586 38.519 11.138 C 38.182 10.914 37.729 10.987 37.479 11.305 C 37.228 11.624 37.266 12.082 37.566 12.354 C 38.084 12.765 38.577 13.204 39.045 13.671 C 45.394 20.022 45.394 30.317 39.045 36.669 C 38.824 36.857 38.727 37.154 38.794 37.437 C 38.864 37.718 39.084 37.938 39.366 38.008 C 39.65 38.075 39.947 37.981 40.137 37.76 C 47.087 30.804 47.087 19.534 40.137 12.578 Z " fill="rgb(141,108,159)"/></g></g></svg>