<?xml version="1.0" encoding="UTF-8" standalone="no"?><!-- Generator: Gravit.io --><svg xmlns="http://www.w3.org/2000/svg" xmlns:xlink="http://www.w3.org/1999/xlink" style="isolation:isolate" viewBox="0 0 50 50" width="50pt" height="50pt"><defs><clipPath id="_clipPath_3yeilv1t9PskcEdKRXKCmwYYybvpDGZO"><rect width="50" height="50"/></clipPath></defs><g clip-path="url(#_clipPath_3yeilv1t9PskcEdKRXKCmwYYybvpDGZO)"><g><path d=" M 42.239 47.413 L 2.586 47.413 C 1.634 47.413 0.862 46.642 0.862 45.689 L 0.862 6.036 C 0.862 5.084 1.634 4.312 2.586 4.312 L 42.239 4.312 C 43.192 4.312 43.964 5.084 43.964 6.036 L 43.964 45.689 C 43.964 46.642 43.192 47.413 42.239 47.413 Z " fill="rgb(249,227,174)"/><path d=" M 41.377 47.413 L 3.448 47.413 C 2.02 47.413 0.862 46.256 0.862 44.827 L 0.862 29.311 C 0.862 27.406 2.405 25.863 4.31 25.863 L 40.515 25.863 C 42.42 25.863 43.964 27.406 43.964 29.311 L 43.964 44.827 C 43.964 46.256 42.806 47.413 41.377 47.413 Z " fill="rgb(246,211,151)"/><path d=" M 37.067 42.241 L 7.758 42.241 C 6.806 42.241 6.034 41.469 6.034 40.517 L 6.034 11.208 C 6.034 10.256 6.806 9.484 7.758 9.484 L 37.067 9.484 C 38.019 9.484 38.791 10.256 38.791 11.208 L 38.791 40.517 C 38.791 41.469 38.019 42.241 37.067 42.241 Z " fill="rgb(194,205,231)"/><path d=" M 45.257 3.019 L 22.413 25.863 L 13.792 17.242 L 10.344 20.691 L 22.413 32.759 L 48.705 6.467 L 45.257 3.019 Z " fill="rgb(114,202,175)"/><path d=" M 22.413 28.523 C 21.841 28.523 21.292 28.297 20.887 27.894 L 12.014 19.019 L 13.843 17.192 L 22.413 25.758 L 45.203 2.965 L 47.031 4.794 L 23.939 27.893 C 23.533 28.296 22.985 28.522 22.413 28.522 L 22.413 28.523 Z " fill="rgb(151,224,187)"/><path d=" M 18.103 39.655 C 17.627 39.655 17.241 40.041 17.241 40.517 L 17.241 42.241 C 17.241 42.717 17.627 43.103 18.103 43.103 C 18.579 43.103 18.965 42.717 18.965 42.241 L 18.965 40.517 C 18.965 40.041 18.579 39.655 18.103 39.655 Z  M 22.413 39.655 C 21.937 39.655 21.551 40.041 21.551 40.517 L 21.551 42.241 C 21.551 42.717 21.937 43.103 22.413 43.103 C 22.889 43.103 23.275 42.717 23.275 42.241 L 23.275 40.517 C 23.275 40.041 22.889 39.655 22.413 39.655 Z  M 26.723 39.655 C 26.247 39.655 25.861 40.041 25.861 40.517 L 25.861 42.241 C 25.861 42.717 26.247 43.103 26.723 43.103 C 27.199 43.103 27.585 42.717 27.585 42.241 L 27.585 40.517 C 27.585 40.041 27.199 39.655 26.723 39.655 Z  M 31.033 39.655 C 30.557 39.655 30.171 40.041 30.171 40.517 L 30.171 42.241 C 30.171 42.717 30.557 43.103 31.033 43.103 C 31.509 43.103 31.895 42.717 31.895 42.241 L 31.895 40.517 C 31.895 40.041 31.509 39.655 31.033 39.655 Z  M 13.792 39.655 C 13.316 39.655 12.93 40.041 12.93 40.517 L 12.93 42.241 C 12.93 42.717 13.316 43.103 13.792 43.103 C 14.269 43.103 14.655 42.717 14.655 42.241 L 14.655 40.517 C 14.655 40.041 14.269 39.655 13.792 39.655 Z " fill="rgb(141,108,159)"/><path d=" M 49.748 5.424 L 46.3 1.976 C 45.96 1.641 45.415 1.641 45.076 1.976 L 43.351 3.709 C 43.014 3.545 42.636 3.45 42.239 3.45 L 2.586 3.45 C 1.16 3.455 0.005 4.61 0 6.036 L 0 45.689 C 0 47.11 1.165 48.276 2.586 48.276 L 42.239 48.276 C 43.66 48.276 44.826 47.11 44.826 45.689 L 44.826 11.572 L 49.748 6.649 C 50.084 6.31 50.084 5.763 49.748 5.423 L 49.748 5.424 Z  M 43.101 45.689 C 43.101 46.164 42.714 46.551 42.239 46.551 L 2.586 46.551 C 2.112 46.551 1.724 46.164 1.724 45.689 L 1.724 6.036 C 1.724 5.562 2.112 5.174 2.586 5.174 L 41.876 5.174 L 38.371 8.683 C 38.233 8.639 38.084 8.622 37.929 8.622 L 6.896 8.622 C 5.946 8.622 5.172 9.396 5.172 10.346 L 5.172 41.379 C 5.172 42.329 5.946 43.103 6.896 43.103 L 9.482 43.103 C 9.956 43.103 10.344 42.715 10.344 42.241 C 10.344 41.767 9.956 41.379 9.482 41.379 L 6.896 41.379 L 6.896 10.346 L 36.703 10.346 L 22.413 24.647 L 14.405 16.63 C 14.065 16.295 13.52 16.295 13.18 16.63 L 9.732 20.079 C 9.397 20.418 9.397 20.963 9.732 21.303 L 21.801 33.371 C 21.971 33.533 22.187 33.621 22.413 33.621 C 22.639 33.621 22.854 33.533 23.025 33.371 L 37.929 18.469 L 37.929 41.379 L 35.343 41.379 C 34.869 41.379 34.481 41.767 34.481 42.241 C 34.481 42.715 34.869 43.103 35.343 43.103 L 37.929 43.103 C 38.879 43.103 39.653 42.329 39.653 41.379 L 39.653 16.744 L 43.101 13.296 L 43.101 45.689 Z  M 44.826 9.131 L 22.413 31.544 L 11.56 20.691 L 13.792 18.458 L 21.801 26.475 C 22.137 26.813 22.689 26.813 23.025 26.475 L 37.929 11.562 L 45.688 3.803 L 47.92 6.036 L 44.826 9.131 Z " fill="rgb(141,108,159)"/></g></g></svg>