<?xml version="1.0" encoding="UTF-8" standalone="no"?><!-- Generator: Gravit.io --><svg xmlns="http://www.w3.org/2000/svg" xmlns:xlink="http://www.w3.org/1999/xlink" style="isolation:isolate" viewBox="0 0 50 50" width="50pt" height="50pt"><defs><clipPath id="_clipPath_nPekQJRuWneffUQIbCuhNF2hZ4WRlCAM"><rect width="50" height="50"/></clipPath></defs><g clip-path="url(#_clipPath_nPekQJRuWneffUQIbCuhNF2hZ4WRlCAM)"><g><path d=" M 31.47 30.182 C 33.715 29.516 35.924 28.734 38.088 27.838 C 38.517 27.662 38.85 27.302 38.991 26.857 C 39.128 26.411 39.061 25.926 38.805 25.535 L 37.352 23.308 C 36.343 21.761 35.615 20.047 35.204 18.247 L 33.431 11.287 C 32.182 5.774 27.386 1.786 21.737 1.562 C 21.044 1.051 20.204 0.777 19.342 0.781 C 13.487 0.777 8.414 4.84 7.139 10.554 L 5.226 18.365 C 4.811 20.215 4.065 21.975 3.023 23.558 L 1.726 25.511 C 1.454 25.902 1.376 26.397 1.515 26.854 C 1.653 27.311 1.992 27.681 2.437 27.854 C 3.835 28.431 7.309 29.573 9.467 30.152" fill="rgb(249,227,174)"/><path d=" M 35.149 32.44 L 24.995 26.557 L 15.622 26.557 L 5.468 32.44 C 2.57 34.111 0.781 37.206 0.781 40.555 L 0.781 44.523 C 0.781 45.385 1.481 46.085 2.343 46.085 L 38.274 46.085 C 39.136 46.085 39.836 45.385 39.836 44.523 L 39.836 40.556 C 39.836 37.205 38.047 34.112 35.149 32.441 L 35.149 32.44 Z " fill="rgb(237,120,153)"/><path d=" M 42.96 42.179 L 3.905 42.179 C 2.179 42.179 0.781 43.578 0.781 45.304 C 0.781 45.733 1.133 46.085 1.562 46.085 L 45.304 46.085 C 45.733 46.085 46.085 45.733 46.085 45.304 C 46.085 43.578 44.686 42.179 42.96 42.179 Z " fill="rgb(224,103,143)"/><path d=" M 27.338 27.915 C 27.338 27.915 24.058 31.985 20.262 31.985 C 16.464 31.985 13.279 27.916 13.279 27.916 L 11.085 29.337 C 10.624 29.645 10.358 30.173 10.389 30.725 C 10.42 31.278 10.74 31.772 11.231 32.025 L 20.269 36.611 L 29.416 31.97 C 29.921 31.715 30.249 31.206 30.271 30.64 C 30.295 30.074 30.01 29.54 29.526 29.245 L 27.338 27.915 Z " fill="rgb(249,140,179)"/><path d=" M 30.118 14.06 C 30.389 14.905 30.545 15.784 30.588 16.669 C 30.825 16.486 31.13 16.415 31.423 16.474 C 32.259 16.699 32.572 18.231 32.126 19.894 C 31.72 21.456 30.807 22.518 30.017 22.518 C 28.611 27.26 24.861 31.985 20.464 31.985 C 16.067 31.985 12.312 27.26 10.935 22.518 C 10.154 22.518 9.239 21.425 8.826 19.894 C 8.381 18.23 8.693 16.693 9.529 16.473 C 9.821 16.416 10.127 16.485 10.365 16.668 C 10.392 15.784 10.532 14.908 10.786 14.06 C 12.054 14.259 13.309 13.632 13.911 12.498 C 14.957 10.545 15.756 10.154 15.756 10.154 L 20.138 11.936 C 20.138 11.936 24.91 12.897 26.322 12.506 C 27.738 12.116 30.118 14.06 30.118 14.06 Z " fill="rgb(250,239,222)"/><path d=" M 49.209 39.836 C 49.209 45.014 45.014 49.209 39.836 49.209 C 34.658 49.209 30.463 45.014 30.463 39.836 C 30.463 34.658 34.658 30.463 39.836 30.463 C 45.014 30.463 49.209 34.658 49.209 39.836 Z " fill="rgb(114,202,175)"/><path d=" M 24.214 40.617 C 23.784 40.617 23.433 40.969 23.433 41.398 L 23.433 42.96 C 23.433 43.39 23.784 43.742 24.214 43.742 C 24.644 43.742 24.995 43.39 24.995 42.96 L 24.995 41.398 C 24.995 40.969 24.644 40.617 24.214 40.617 Z  M 28.119 40.617 C 27.69 40.617 27.338 40.969 27.338 41.398 L 27.338 42.96 C 27.338 43.39 27.69 43.742 28.119 43.742 C 28.549 43.742 28.901 43.39 28.901 42.96 L 28.901 41.398 C 28.901 40.969 28.549 40.617 28.119 40.617 Z  M 20.308 39.055 C 19.879 39.055 19.527 39.407 19.527 39.836 L 19.527 42.96 C 19.527 43.39 19.879 43.742 20.308 43.742 C 20.738 43.742 21.09 43.39 21.09 42.96 L 21.09 39.836 C 21.09 39.407 20.738 39.055 20.308 39.055 Z  M 16.403 40.617 C 15.973 40.617 15.622 40.969 15.622 41.398 L 15.622 42.96 C 15.622 43.39 15.973 43.742 16.403 43.742 C 16.833 43.742 17.184 43.39 17.184 42.96 L 17.184 41.398 C 17.184 40.969 16.833 40.617 16.403 40.617 Z  M 12.498 40.617 C 12.068 40.617 11.716 40.969 11.716 41.398 L 11.716 42.96 C 11.716 43.39 12.068 43.742 12.498 43.742 C 12.927 43.742 13.279 43.39 13.279 42.96 L 13.279 41.398 C 13.279 40.969 12.927 40.617 12.498 40.617 Z  M 8.592 40.617 C 8.162 40.617 7.811 40.969 7.811 41.398 L 7.811 42.96 C 7.811 43.39 8.162 43.742 8.592 43.742 C 9.022 43.742 9.373 43.39 9.373 42.96 L 9.373 41.398 C 9.373 40.969 9.022 40.617 8.592 40.617 Z  M 4.687 40.617 C 4.257 40.617 3.905 40.969 3.905 41.398 L 3.905 42.96 C 3.905 43.39 4.257 43.742 4.687 43.742 C 5.116 43.742 5.468 43.39 5.468 42.96 L 5.468 41.398 C 5.468 40.969 5.116 40.617 4.687 40.617 Z " fill="rgb(141,108,159)"/><path d=" M 39.836 29.682 C 37.963 29.678 36.126 30.198 34.532 31.183 L 33.292 30.463 C 35.315 29.791 37.634 28.862 38.43 28.534 C 39.076 28.268 39.571 27.728 39.779 27.061 C 39.987 26.393 39.885 25.666 39.501 25.08 L 38.048 22.857 C 37.085 21.381 36.392 19.745 36.001 18.026 L 34.228 11.092 C 32.916 5.327 27.952 1.124 22.05 0.781 C 21.26 0.263 20.332 -0.009 19.387 0 C 13.163 -0.03 7.764 4.294 6.435 10.374 L 4.522 18.185 C 4.127 19.941 3.416 21.611 2.423 23.113 L 1.126 25.081 C 0.738 25.665 0.633 26.392 0.839 27.061 C 1.043 27.732 1.539 28.276 2.188 28.541 C 3.258 28.986 5.529 29.751 7.506 30.353 L 5.069 31.769 C 1.931 33.583 -0.001 36.932 0 40.556 L 0 44.523 C 0 45.817 1.049 46.866 2.343 46.866 L 32.516 46.866 C 35.718 50.202 40.768 50.954 44.803 48.697 C 48.838 46.44 50.838 41.742 49.669 37.269 C 48.5 32.797 44.458 29.679 39.836 29.682 Z  M 2.789 27.097 C 2.573 27.006 2.409 26.822 2.343 26.597 C 2.275 26.375 2.31 26.135 2.438 25.941 L 3.734 23.973 C 4.843 22.309 5.637 20.455 6.078 18.505 L 7.991 10.694 C 9.171 5.35 13.914 1.549 19.387 1.562 C 20.082 1.566 20.759 1.791 21.315 2.209 C 21.44 2.304 21.589 2.359 21.744 2.368 C 27.025 2.586 31.505 6.314 32.679 11.467 L 34.447 18.402 C 34.88 20.291 35.647 22.088 36.711 23.708 L 38.194 25.932 C 38.308 26.12 38.337 26.347 38.274 26.557 C 38.203 26.78 38.039 26.964 37.822 27.049 C 36.846 27.449 33.547 28.775 31.43 29.392 L 28.305 27.596 C 29.221 26.243 29.947 24.772 30.463 23.222 C 31.423 22.863 32.3 21.66 32.72 20.098 C 32.962 19.247 33.01 18.352 32.861 17.48 C 32.779 16.67 32.234 15.981 31.463 15.717 C 31.354 15.687 31.241 15.671 31.127 15.668 C 31.04 15.044 30.901 14.427 30.713 13.825 C 30.572 13.428 30.142 13.215 29.741 13.341 C 29.339 13.468 29.11 13.889 29.222 14.295 C 29.483 15.086 29.639 15.906 29.682 16.739 C 29.694 17.02 29.853 17.273 30.103 17.404 C 30.353 17.529 30.652 17.511 30.885 17.355 C 30.948 17.312 31.019 17.281 31.095 17.264 C 29.892 12.864 31.268 17.405 31.36 17.831 C 31.457 18.466 31.418 19.114 31.244 19.732 C 31.105 20.298 30.853 20.83 30.502 21.294 C 30.243 21.621 30.002 21.776 29.886 21.776 C 29.527 21.762 29.205 21.996 29.105 22.341 C 28.633 23.931 27.921 25.439 26.994 26.814 C 26.707 27.253 26.392 27.674 26.051 28.074 C 24.48 29.956 22.481 31.244 20.308 31.244 C 18.136 31.244 16.137 29.957 14.56 28.074 C 14.218 27.674 13.902 27.254 13.614 26.814 C 12.69 25.438 11.979 23.93 11.506 22.341 C 11.405 21.997 11.083 21.764 10.724 21.776 C 10.49 21.776 9.754 21.169 9.364 19.732 C 9.19 19.114 9.15 18.466 9.248 17.831 C 9.342 17.395 9.489 17.269 9.507 17.264 C 9.584 17.28 9.66 17.309 9.724 17.355 C 9.957 17.511 10.255 17.529 10.505 17.404 C 10.755 17.274 10.916 17.021 10.927 16.739 C 10.966 15.927 11.11 15.122 11.356 14.35 C 11.421 14.151 11.403 13.934 11.306 13.749 C 11.209 13.563 11.041 13.425 10.841 13.364 C 10.429 13.238 9.993 13.468 9.864 13.88 C 9.676 14.476 9.538 15.087 9.453 15.707 C 9.339 15.71 9.226 15.726 9.117 15.756 C 8.345 16.02 7.798 16.709 7.716 17.52 C 7.569 18.392 7.617 19.286 7.857 20.138 C 8.281 21.7 9.154 22.863 10.114 23.262 C 10.622 24.809 11.337 26.28 12.241 27.635 L 9.373 29.276 C 7.249 28.674 4.091 27.635 2.789 27.097 Z  M 2.343 45.304 C 1.914 45.304 1.562 44.952 1.562 44.523 L 1.562 40.556 C 1.562 37.49 3.198 34.655 5.849 33.117 L 13.208 28.855 C 15.097 31.175 17.575 32.806 20.308 32.806 C 23.042 32.806 25.52 31.174 27.409 28.855 L 33.165 32.19 C 29.367 35.483 28.55 41.06 31.244 45.304 L 2.343 45.304 Z  M 39.836 48.428 C 38.068 48.431 36.343 47.885 34.899 46.866 C 34.267 46.424 33.698 45.898 33.206 45.304 C 30.645 42.202 30.578 37.739 33.047 34.563 C 35.515 31.386 39.856 30.348 43.495 32.064 C 47.133 33.777 49.095 37.785 48.217 41.709 C 47.34 45.634 43.858 48.426 39.836 48.428 Z " fill="rgb(141,108,159)"/><path d=" M 26.206 32.892 L 20.308 35.835 L 14.411 32.885 C 14.025 32.693 13.557 32.85 13.365 33.236 C 13.172 33.622 13.329 34.09 13.715 34.283 L 19.964 37.407 C 20.183 37.513 20.44 37.513 20.659 37.407 L 26.908 34.283 C 27.167 34.163 27.341 33.913 27.363 33.63 C 27.381 33.345 27.246 33.073 27.009 32.916 C 26.769 32.761 26.463 32.749 26.212 32.884 L 26.206 32.892 Z  M 13.56 13.145 C 13.917 13.382 14.399 13.285 14.636 12.928 L 15.887 11.03 L 17.104 11.622 C 19.347 12.712 21.807 13.278 24.3 13.279 L 26.292 13.279 C 26.722 13.279 27.074 12.927 27.074 12.498 C 27.074 12.068 26.722 11.717 26.292 11.717 L 24.301 11.717 C 22.049 11.714 19.827 11.2 17.802 10.215 L 16.583 9.623 C 15.876 9.28 15.024 9.514 14.592 10.17 L 13.34 12.068 C 13.105 12.426 13.203 12.907 13.56 13.145 Z " fill="rgb(141,108,159)"/><path d=" M 43.968 36.157 L 38.274 41.859 L 35.704 39.289 C 35.393 39.025 34.932 39.043 34.643 39.33 C 34.356 39.619 34.338 40.08 34.603 40.391 L 37.728 43.516 C 38.032 43.818 38.524 43.818 38.829 43.516 L 45.078 37.267 C 45.343 36.957 45.325 36.495 45.037 36.207 C 44.748 35.918 44.286 35.9 43.976 36.166 L 43.968 36.157 Z " fill="rgb(250,239,222)"/></g></g></svg>